<?xml version="1.0" standalone="no"?>
<!DOCTYPE svg PUBLIC "-//W3C//DTD SVG 20010904//EN"
 "http://www.w3.org/TR/2001/REC-SVG-20010904/DTD/svg10.dtd">
<svg version="1.0" xmlns="http://www.w3.org/2000/svg"
 width="700.000000pt" height="700.000000pt" viewBox="0 0 700.000000 700.000000"
 preserveAspectRatio="xMidYMid meet">
<metadata>
Created by potrace 1.11, written by Peter Selinger 2001-2013
</metadata>
<g transform="translate(0.000000,700.000000) scale(0.100000,-0.100000)"
fill="#000000" stroke="none">
<path d="M5220 6647 c-3 -3 -61 -8 -130 -11 -69 -4 -143 -9 -165 -11 -22 -3
-78 -7 -125 -10 -47 -3 -103 -7 -125 -9 -22 -2 -92 -7 -155 -11 -63 -4 -128
-8 -145 -10 -16 -1 -79 -6 -140 -10 -60 -4 -123 -9 -140 -10 -16 -1 -77 -5
-135 -9 -58 -4 -123 -9 -145 -11 -22 -2 -81 -6 -130 -10 -91 -6 -165 -11 -285
-20 -36 -3 -101 -7 -145 -10 -101 -8 -194 -15 -265 -20 -30 -2 -93 -7 -140
-10 -47 -3 -110 -8 -140 -10 -30 -2 -93 -7 -140 -10 -47 -3 -110 -8 -140 -10
-30 -3 -93 -7 -140 -10 -47 -3 -107 -8 -135 -10 -27 -2 -88 -7 -135 -10 l-85
-7 -49 -87 c-79 -138 -265 -461 -301 -521 -18 -30 -42 -71 -53 -90 -11 -19
-43 -75 -72 -125 -29 -49 -64 -110 -78 -134 -14 -25 -38 -68 -55 -95 -16 -28
-40 -69 -52 -91 -13 -22 -78 -134 -145 -250 -68 -115 -130 -223 -140 -240
-122 -213 -216 -375 -231 -397 -11 -15 -19 -30 -19 -33 0 -3 -20 -38 -44 -78
-24 -39 -77 -130 -118 -202 -75 -131 -172 -297 -302 -520 -98 -169 -131 -229
-120 -223 5 3 72 9 149 12 77 4 172 9 210 11 39 3 120 7 180 10 61 3 142 7
180 10 39 2 117 7 175 10 58 3 156 7 217 11 l113 5 -1 -133 c-2 -272 36 -556
111 -832 l20 -73 -43 -79 c-24 -43 -56 -110 -72 -148 l-29 -68 44 -87 c88
-173 203 -347 339 -516 124 -153 461 -475 475 -453 4 6 130 153 144 168 8 8
12 10 9 4 -7 -13 128 -119 264 -206 111 -72 331 -187 435 -228 l82 -32 -54
-86 -53 -87 82 -28 c75 -26 174 -52 223 -60 10 -1 25 -6 32 -10 6 -5 16 -6 21
-2 5 3 12 1 16 -4 3 -5 13 -10 23 -9 23 0 80 -9 89 -15 8 -5 65 -13 152 -22
24 -2 51 -7 60 -9 12 -4 250 -17 331 -18 107 -2 486 29 505 40 5 4 18 5 28 4
9 -2 41 2 70 7 28 6 63 13 77 16 65 12 207 47 222 55 9 5 31 12 49 15 103 18
545 215 610 271 8 8 19 14 22 14 16 0 146 93 141 101 -3 5 1 6 8 4 8 -3 30 10
51 29 20 18 37 32 37 29 0 -11 182 141 247 206 23 24 43 41 43 38 0 -4 30 26
67 66 38 40 77 81 89 92 73 69 225 295 296 439 83 167 151 365 173 501 4 22 8
51 11 65 2 14 8 52 13 85 15 96 5 435 -15 515 -3 14 -8 39 -11 55 -7 47 -50
204 -71 265 -11 30 -23 93 -26 140 -8 102 -14 157 -27 230 -117 686 -480 1278
-1040 1697 -52 38 -101 73 -109 76 -23 10 57 -4 132 -23 37 -9 65 -13 62 -8
-20 31 -295 204 -439 275 -49 24 -98 48 -107 54 -34 18 -214 87 -298 113 -47
15 -91 29 -97 31 -8 3 3 31 34 82 205 346 404 695 401 704 -2 5 -6 8 -8 6z"/>
</g>
</svg>
