<?xml version="1.0" encoding="UTF-8" standalone="no"?>
<!-- Created with Inkscape (http://www.inkscape.org/) -->

<svg
   xmlns:dc="http://purl.org/dc/elements/1.1/"
   xmlns:cc="http://creativecommons.org/ns#"
   xmlns:rdf="http://www.w3.org/1999/02/22-rdf-syntax-ns#"
   xmlns:svg="http://www.w3.org/2000/svg"
   xmlns="http://www.w3.org/2000/svg"
   xmlns:xlink="http://www.w3.org/1999/xlink"
   xmlns:sodipodi="http://sodipodi.sourceforge.net/DTD/sodipodi-0.dtd"
   xmlns:inkscape="http://www.inkscape.org/namespaces/inkscape"
   width="147.35031mm"
   height="35.831608mm"
   viewBox="0 0 147.35031 35.831608"
   version="1.1"
   id="svg8"
   inkscape:version="0.92.1 r15371"
   sodipodi:docname="logo.svg">
  <defs
     id="defs2">
    <clipPath
       id="clipPath20"
       clipPathUnits="userSpaceOnUse">
      <path
         inkscape:connector-curvature="0"
         id="path22"
         d="m 591.582,446.766 v 47.382 l 34.828,49.571 43.512,-14.774 -78.34,-82.179 m 0,108.773 v 0.008 l 0.008,-0.004 -0.008,-0.004" />
    </clipPath>
    <clipPath
       id="clipPath32"
       clipPathUnits="userSpaceOnUse">
      <path
         inkscape:connector-curvature="0"
         id="path34"
         d="M 464.934,313.906 591.582,494.148 V 446.766 L 464.934,313.906 m -119.313,79.117 -0.004,0.004 245.965,162.52 v -0.008 L 345.621,393.023" />
    </clipPath>
    <clipPath
       id="clipPath46"
       clipPathUnits="userSpaceOnUse">
      <path
         inkscape:connector-curvature="0"
         id="path48"
         d="m 486.965,167.188 v 0 m 0,0 h -0.012 l -0.004,0.007 0.016,-0.007" />
    </clipPath>
    <clipPath
       id="clipPath58"
       clipPathUnits="userSpaceOnUse">
      <path
         inkscape:connector-curvature="0"
         id="path60"
         d="M 486.953,167.188 H 273.445 l -6.246,3.281 c 28.012,35.363 54.942,69.508 54.942,70.078 v 0 0 0 0 l 164.808,-73.352 0.004,-0.007" />
    </clipPath>
    <clipPath
       id="clipPath70"
       clipPathUnits="userSpaceOnUse">
      <path
         inkscape:connector-curvature="0"
         id="path72"
         d="m 205.215,92.3945 -14.649,42.1365 57.243,46.121 19.386,-10.187 c -30.355,-38.32 -61.98,-78.0705 -61.98,-78.0705" />
    </clipPath>
    <clipPath
       id="clipPath82"
       clipPathUnits="userSpaceOnUse">
      <path
         inkscape:connector-curvature="0"
         id="path84"
         d="m 267.195,170.465 -19.386,10.187 0.004,0.004 19.386,-10.187 -0.004,-0.004" />
    </clipPath>
    <clipPath
       id="clipPath94"
       clipPathUnits="userSpaceOnUse">
      <path
         inkscape:connector-curvature="0"
         id="path96"
         d="m 267.199,170.469 -19.386,10.187 74.328,59.891 c 0,-0.57 -26.93,-34.715 -54.942,-70.078 m 54.942,70.078 -123.86,55.129 v 0 l 123.86,-55.129 v 0 0" />
    </clipPath>
    <clipPath
       id="clipPath112"
       clipPathUnits="userSpaceOnUse">
      <path
         inkscape:connector-curvature="0"
         id="path114"
         d="m 247.805,180.652 -89.641,47.102 40.117,67.922 123.86,-55.129 -74.336,-59.895" />
    </clipPath>
    <style
       id="style136"
       type="text/css"><![CDATA[
    .fil7 {fill:#306BA4}
    .fil20 {fill:#FEFEFE;fill-rule:nonzero}
    .fil24 {fill:#575B5C;fill-rule:nonzero}
    .fil2 {fill:url(#id0)}
    .fil0 {fill:url(#id1)}
    .fil5 {fill:url(#id2)}
    .fil17 {fill:url(#id3)}
    .fil4 {fill:url(#id4)}
    .fil1 {fill:url(#id5)}
    .fil10 {fill:url(#id6)}
    .fil15 {fill:url(#id7)}
    .fil14 {fill:url(#id8)}
    .fil16 {fill:url(#id9)}
    .fil8 {fill:url(#id10)}
    .fil11 {fill:url(#id11)}
    .fil9 {fill:url(#id12)}
    .fil18 {fill:url(#id13)}
    .fil3 {fill:url(#id14)}
    .fil19 {fill:url(#id15)}
    .fil21 {fill:url(#id16)}
    .fil12 {fill:url(#id17)}
    .fil13 {fill:url(#id18)}
    .fil22 {fill:url(#id19)}
    .fil23 {fill:url(#id20)}
    .fil6 {fill:url(#id21)}
   ]]></style>
    <linearGradient
       y2="-1033.12"
       x2="932.20099"
       y1="2452.3601"
       x1="1197.99"
       gradientUnits="userSpaceOnUse"
       id="id0">
      <stop
         id="stop138"
         style="stop-opacity:1; stop-color:#79D2F6"
         offset="0" />
      <stop
         id="stop140"
         style="stop-opacity:1; stop-color:#528091"
         offset="0.129412" />
      <stop
         id="stop142"
         style="stop-opacity:1; stop-color:#5CCAEF"
         offset="0.219608" />
      <stop
         id="stop144"
         style="stop-opacity:1; stop-color:#257099"
         offset="0.45098" />
      <stop
         id="stop146"
         style="stop-opacity:1; stop-color:#2B2D2C"
         offset="0.580392" />
      <stop
         id="stop148"
         style="stop-opacity:1; stop-color:#2B2D2C"
         offset="1" />
    </linearGradient>
    <linearGradient
       y2="1893.62"
       x2="1020.84"
       y1="-179.228"
       x1="841.40198"
       gradientUnits="userSpaceOnUse"
       id="id1">
      <stop
         id="stop151"
         style="stop-opacity:1; stop-color:#50C8EF"
         offset="0" />
      <stop
         id="stop153"
         style="stop-opacity:1; stop-color:#2C3B54"
         offset="0.290196" />
      <stop
         id="stop155"
         style="stop-opacity:1; stop-color:#2C3B54"
         offset="0.341176" />
      <stop
         id="stop157"
         style="stop-opacity:1; stop-color:#2C3B54"
         offset="0.360784" />
      <stop
         id="stop159"
         style="stop-opacity:1; stop-color:#2C3A54"
         offset="0.6" />
      <stop
         id="stop161"
         style="stop-opacity:1; stop-color:#4FB2E5"
         offset="1" />
    </linearGradient>
    <linearGradient
       y2="-1033.12"
       x2="929.88202"
       y1="2452.3601"
       x1="1196.47"
       gradientUnits="userSpaceOnUse"
       id="id2">
      <stop
         id="stop164"
         style="stop-opacity:1; stop-color:#9CDBF8"
         offset="0" />
      <stop
         id="stop166"
         style="stop-opacity:1; stop-color:#7392A0"
         offset="0.129412" />
      <stop
         id="stop168"
         style="stop-opacity:1; stop-color:#8CD6F2"
         offset="0.219608" />
      <stop
         id="stop170"
         style="stop-opacity:1; stop-color:#6188AB"
         offset="0.45098" />
      <stop
         id="stop172"
         style="stop-opacity:1; stop-color:#494847"
         offset="0.580392" />
      <stop
         id="stop174"
         style="stop-opacity:1; stop-color:#494847"
         offset="1" />
    </linearGradient>
    <linearGradient
       y2="-1894.15"
       x2="85.807098"
       y1="3437.0801"
       x1="2546.1599"
       xlink:href="#id2"
       gradientUnits="userSpaceOnUse"
       id="id3" />
    <linearGradient
       y2="1899.46"
       x2="1022.27"
       y1="-179.76801"
       x1="842.57898"
       gradientUnits="userSpaceOnUse"
       id="id4">
      <stop
         id="stop178"
         style="stop-opacity:1; stop-color:#86D5F3"
         offset="0" />
      <stop
         id="stop180"
         style="stop-opacity:1; stop-color:#4D566E"
         offset="0.290196" />
      <stop
         id="stop182"
         style="stop-opacity:1; stop-color:#4D566E"
         offset="0.341176" />
      <stop
         id="stop184"
         style="stop-opacity:1; stop-color:#4D566E"
         offset="0.360784" />
      <stop
         id="stop186"
         style="stop-opacity:1; stop-color:#4E556E"
         offset="0.6" />
      <stop
         id="stop188"
         style="stop-opacity:1; stop-color:#80C0EA"
         offset="1" />
    </linearGradient>
    <linearGradient
       y2="-2208.54"
       x2="769.39001"
       y1="3751.99"
       x1="1862.89"
       xlink:href="#id0"
       gradientUnits="userSpaceOnUse"
       id="id5" />
    <radialGradient
       fy="1957.99"
       fx="2146.8401"
       r="2.2283499"
       cy="1957.99"
       cx="2146.8401"
       gradientTransform="matrix(1.4019,0,0,-1.80164,-863,5486)"
       gradientUnits="userSpaceOnUse"
       id="id6">
      <stop
         id="stop192"
         style="stop-opacity:1; stop-color:#F9C67D"
         offset="0" />
      <stop
         id="stop194"
         style="stop-opacity:1; stop-color:#F9C67D"
         offset="0.101961" />
      <stop
         id="stop196"
         style="stop-opacity:1; stop-color:#FCB62E"
         offset="0.321569" />
      <stop
         id="stop198"
         style="stop-opacity:1; stop-color:#D54B39"
         offset="0.678431" />
      <stop
         id="stop200"
         style="stop-opacity:1; stop-color:#E7885B"
         offset="0.156863" />
      <stop
         id="stop202"
         style="stop-opacity:1; stop-color:#D54B39"
         offset="1" />
    </radialGradient>
    <radialGradient
       fy="2227.04"
       fx="1217.5699"
       r="95.6772"
       cy="2227.04"
       cx="1217.5699"
       xlink:href="#id6"
       gradientTransform="matrix(1.4019,0,0,-0.31182,-489,2921)"
       gradientUnits="userSpaceOnUse"
       id="id7" />
    <radialGradient
       fy="2201.76"
       fx="1097.13"
       r="31.866199"
       cy="2201.76"
       cx="1097.13"
       xlink:href="#id6"
       gradientTransform="matrix(1.4019,0,0,-0.465305,-441,3226)"
       gradientUnits="userSpaceOnUse"
       id="id8" />
    <radialGradient
       fy="2242.4299"
       fx="1374.47"
       r="53.342499"
       cy="2242.4299"
       cx="1374.47"
       xlink:href="#id6"
       gradientTransform="matrix(1.4019,0,0,-0.0762416,-552,2413)"
       gradientUnits="userSpaceOnUse"
       id="id9" />
    <radialGradient
       fy="1906.62"
       fx="2198.23"
       r="55.031502"
       cy="1906.62"
       cx="2198.23"
       xlink:href="#id6"
       gradientTransform="matrix(1.27182,0,0,-1.89541,-598,5520)"
       gradientUnits="userSpaceOnUse"
       id="id10" />
    <radialGradient
       fy="1972.39"
       fx="2132"
       r="11.437"
       cy="1972.39"
       cx="2132"
       xlink:href="#id6"
       gradientTransform="matrix(1.4019,0,0,-1.74795,-857,5420)"
       gradientUnits="userSpaceOnUse"
       id="id11" />
    <radialGradient
       fy="1953.53"
       fx="2151.49"
       r="2.1141701"
       cy="1953.53"
       cx="2151.49"
       xlink:href="#id6"
       gradientTransform="matrix(1.4019,0,0,-1.83188,-865,5532)"
       gradientUnits="userSpaceOnUse"
       id="id12" />
    <radialGradient
       fy="2575.9199"
       fx="879.35101"
       r="105.965"
       cy="2575.9199"
       cx="879.35101"
       gradientTransform="matrix(3.99548,-4.21377,-4.2137,-3.99546,8220,16573)"
       gradientUnits="userSpaceOnUse"
       id="id13">
      <stop
         id="stop211"
         style="stop-opacity:1; stop-color:#9CDBF8"
         offset="0" />
      <stop
         id="stop213"
         style="stop-opacity:1; stop-color:#6188AB"
         offset="0.529412" />
      <stop
         id="stop215"
         style="stop-opacity:1; stop-color:#7296A7"
         offset="0.235294" />
      <stop
         id="stop217"
         style="stop-opacity:1; stop-color:#485257"
         offset="1" />
    </radialGradient>
    <radialGradient
       fy="3283.49"
       fx="3429.3201"
       r="247.244"
       cy="3283.49"
       cx="3429.3201"
       gradientTransform="matrix(-6.16497,4.97217,4.97215,6.16489,8245,-34010)"
       gradientUnits="userSpaceOnUse"
       id="id14">
      <stop
         id="stop220"
         style="stop-opacity:1; stop-color:#FCB52F"
         offset="0" />
      <stop
         id="stop222"
         style="stop-opacity:1; stop-color:#FCB52F"
         offset="0.219608" />
      <stop
         id="stop224"
         style="stop-opacity:1; stop-color:#EC6537"
         offset="0.678431" />
      <stop
         id="stop226"
         style="stop-opacity:1; stop-color:#EC6537"
         offset="1" />
    </radialGradient>
    <radialGradient
       fy="1661.52"
       fx="1310.3101"
       r="105.654"
       cy="1661.52"
       cx="1310.3101"
       gradientTransform="matrix(3.52257,0,0,-3.99911,-3305,8306)"
       gradientUnits="userSpaceOnUse"
       id="id15">
      <stop
         id="stop229"
         style="stop-opacity:1; stop-color:#FAD399"
         offset="0" />
      <stop
         id="stop231"
         style="stop-opacity:1; stop-color:#FAD399"
         offset="0.101961" />
      <stop
         id="stop233"
         style="stop-opacity:1; stop-color:#FEC663"
         offset="0.321569" />
      <stop
         id="stop235"
         style="stop-opacity:1; stop-color:#DD7656"
         offset="0.678431" />
      <stop
         id="stop237"
         style="stop-opacity:1; stop-color:#EBA477"
         offset="0.156863" />
      <stop
         id="stop239"
         style="stop-opacity:1; stop-color:#DD7656"
         offset="1" />
    </radialGradient>
    <radialGradient
       fy="2572.71"
       fx="787.591"
       r="2.11024"
       cy="2572.71"
       cx="787.591"
       xlink:href="#id13"
       gradientTransform="matrix(236.94,-210.467,-210.417,-236.555,355517,776922)"
       gradientUnits="userSpaceOnUse"
       id="id16" />
    <radialGradient
       fy="1483.49"
       fx="1394.22"
       r="920.367"
       cy="1483.49"
       cx="1394.22"
       gradientTransform="matrix(0.998282,-0.417919,-0.356688,-0.925269,532,3439)"
       gradientUnits="userSpaceOnUse"
       id="id17">
      <stop
         id="stop243"
         style="stop-opacity:1; stop-color:#FBB93D"
         offset="0" />
      <stop
         id="stop245"
         style="stop-opacity:1; stop-color:#E8823B"
         offset="0.74902" />
      <stop
         id="stop247"
         style="stop-opacity:1; stop-color:#D54B39"
         offset="1" />
    </radialGradient>
    <radialGradient
       fy="2174.7"
       fx="1301.29"
       r="224.58701"
       cy="2174.7"
       cx="1301.29"
       xlink:href="#id6"
       gradientTransform="matrix(1.4019,0,0,-0.328777,-523,2890)"
       gradientUnits="userSpaceOnUse"
       id="id18" />
    <radialGradient
       fy="1658.75"
       fx="1299.74"
       r="179.05099"
       cy="1658.75"
       cx="1299.74"
       gradientTransform="matrix(2.35977,0,0,-2.35977,-1767,5573)"
       gradientUnits="userSpaceOnUse"
       id="id19">
      <stop
         id="stop251"
         style="stop-opacity:1; stop-color:#FAD399"
         offset="0" />
      <stop
         id="stop253"
         style="stop-opacity:1; stop-color:#FAD399"
         offset="0.101961" />
      <stop
         id="stop255"
         style="stop-opacity:1; stop-color:#FEC663"
         offset="0.321569" />
      <stop
         id="stop257"
         style="stop-opacity:1; stop-color:#DD7656"
         offset="0.678431" />
      <stop
         id="stop259"
         style="stop-opacity:1; stop-color:#EBA477"
         offset="0.156863" />
      <stop
         id="stop261"
         style="stop-opacity:1; stop-color:#DD7656"
         offset="1" />
    </radialGradient>
    <radialGradient
       fy="1659.13"
       fx="1299.22"
       r="13.311"
       cy="1659.13"
       cx="1299.22"
       gradientTransform="matrix(31.7417,0,0,-31.7541,-39940,54344)"
       gradientUnits="userSpaceOnUse"
       id="id20">
      <stop
         id="stop264"
         style="stop-opacity:1; stop-color:#FADDB2"
         offset="0" />
      <stop
         id="stop266"
         style="stop-opacity:1; stop-color:#FADDB2"
         offset="0.101961" />
      <stop
         id="stop268"
         style="stop-opacity:1; stop-color:#FFD389"
         offset="0.321569" />
      <stop
         id="stop270"
         style="stop-opacity:1; stop-color:#E59677"
         offset="0.678431" />
      <stop
         id="stop272"
         style="stop-opacity:1; stop-color:#EFB994"
         offset="0.156863" />
      <stop
         id="stop274"
         style="stop-opacity:1; stop-color:#E59677"
         offset="1" />
    </radialGradient>
    <radialGradient
       fy="3283.04"
       fx="3427.51"
       r="189.843"
       cy="3283.04"
       cx="3427.51"
       gradientTransform="matrix(-8.02895,6.47552,6.47554,8.02894,9687,-45271)"
       gradientUnits="userSpaceOnUse"
       id="id21">
      <stop
         id="stop277"
         style="stop-opacity:1; stop-color:#FEC663"
         offset="0" />
      <stop
         id="stop279"
         style="stop-opacity:1; stop-color:#FEC663"
         offset="0.219608" />
      <stop
         id="stop281"
         style="stop-opacity:1; stop-color:#F08959"
         offset="0.678431" />
      <stop
         id="stop283"
         style="stop-opacity:1; stop-color:#F08959"
         offset="1" />
    </radialGradient>
    <linearGradient
       inkscape:collect="always"
       xlink:href="#id0"
       id="linearGradient4988"
       gradientUnits="userSpaceOnUse"
       x1="1197.99"
       y1="2452.3601"
       x2="932.20099"
       y2="-1033.12" />
    <linearGradient
       inkscape:collect="always"
       xlink:href="#id2"
       id="linearGradient4990"
       gradientUnits="userSpaceOnUse"
       x1="1196.47"
       y1="2452.3601"
       x2="929.88202"
       y2="-1033.12" />
    <radialGradient
       inkscape:collect="always"
       xlink:href="#id6"
       id="radialGradient4992"
       gradientUnits="userSpaceOnUse"
       gradientTransform="matrix(1.4019,0,0,-1.80164,-863,5486)"
       cx="2146.8401"
       cy="1957.99"
       fx="2146.8401"
       fy="1957.99"
       r="2.2283499" />
    <radialGradient
       inkscape:collect="always"
       xlink:href="#id13"
       id="radialGradient4994"
       gradientUnits="userSpaceOnUse"
       gradientTransform="matrix(3.99548,-4.21377,-4.2137,-3.99546,8220,16573)"
       cx="879.35101"
       cy="2575.9199"
       fx="879.35101"
       fy="2575.9199"
       r="105.965" />
  </defs>
  <sodipodi:namedview
     id="base"
     pagecolor="#ffffff"
     bordercolor="#666666"
     borderopacity="1.0"
     inkscape:pageopacity="0.0"
     inkscape:pageshadow="2"
     inkscape:zoom="0.7"
     inkscape:cx="216.67109"
     inkscape:cy="186.17218"
     inkscape:document-units="mm"
     inkscape:current-layer="layer1"
     showgrid="false"
     fit-margin-top="0"
     fit-margin-left="0"
     fit-margin-right="0"
     fit-margin-bottom="0"
     inkscape:window-width="1366"
     inkscape:window-height="715"
     inkscape:window-x="-8"
     inkscape:window-y="-8"
     inkscape:window-maximized="1" />
  <metadata
     id="metadata5">
    <rdf:RDF>
      <cc:Work
         rdf:about="">
        <dc:format>image/svg+xml</dc:format>
        <dc:type
           rdf:resource="http://purl.org/dc/dcmitype/StillImage" />
        <dc:title></dc:title>
      </cc:Work>
    </rdf:RDF>
  </metadata>
  <g
     inkscape:label="Layer 1"
     inkscape:groupmode="layer"
     id="layer1"
     transform="translate(-36.126935,-150.95026)">
    <g
       style="clip-rule:evenodd;fill-rule:evenodd;image-rendering:optimizeQuality;shape-rendering:geometricPrecision;text-rendering:geometricPrecision"
       id="g503"
       transform="matrix(0.01596774,0,0,0.01596774,36.126935,150.95026)">
      <g
         id="Layer_x0020_1">
        <metadata
           id="CorelCorpID_0Corel-Layer" />
        <g
           id="_768789544">
          <path
             id="path289"
             d="m 587,172 v 0 0 L 638,83 1791,0 h 26 l -163,280 c -88,-25 -179,-38 -271,-38 -220,0 -442,73 -627,222 -186,150 -304,352 -350,568 -7,29 -11,58 -15,87 2,-2 4,-6 7,-10 8,-11 20,-29 35,-52 v 0 -1 l 9,-13 h 1 v 0 l 11,-17 c -8,44 -13,89 -15,135 l -82,4 v 0 L 0,1184 Z"
             class="fil0"
             inkscape:connector-curvature="0"
             style="fill:url(#id1)" />
          <path
             id="path291"
             d="m 1074,2119 c -103,-38 -199,-94 -283,-164 40,-46 87,-99 144,-162 105,-116 199,-194 283,-244 9,299 -71,451 -144,570 z m 1273,-933 c -66,-167 -201,-301 -379,-350 -90,-26 -179,-38 -267,-38 -199,0 -390,59 -560,148 -29,-155 20,-311 125,-386 124,-90 332,-135 439,-154 69,6 141,15 217,30 230,152 393,404 422,700 1,17 2,34 3,50 z"
             class="fil1"
             inkscape:connector-curvature="0"
             style="fill:url(#id5)" />
          <path
             id="path293"
             d="m 486,1532 c -6,-19 -11,-38 -16,-58 -26,-105 -36,-210 -31,-313 2,-46 7,-91 15,-135 136,-196 484,-623 1138,-623 12,0 23,0 35,0 -1,0 -1,0 -2,0 27,0 53,1 80,3 -107,19 -315,64 -439,154 -105,75 -154,231 -125,386 -306,158 -547,410 -655,586 z M 1627,403 Z"
             class="fil2"
             inkscape:connector-curvature="0"
             style="fill:url(#linearGradient4988)" />
          <path
             id="path295"
             d="m 391,1119 c 4,-29 8,-58 15,-87 46,-216 164,-418 350,-568 185,-149 407,-222 627,-222 92,0 183,13 271,38 123,34 241,92 345,173 -26,-6 -52,-12 -77,-17 -76,-15 -148,-24 -217,-30 -27,-2 -53,-3 -80,-3 -16,-4 -37,-6 -66,-6 -42,0 -99,4 -174,14 -617,75 -956,575 -975,603 -1,6 -3,12 -4,18 -7,29 -11,58 -15,87 2,-2 4,-6 7,-10 -3,4 -5,8 -7,10 z"
             class="fil3"
             inkscape:connector-curvature="0"
             style="fill:url(#id14)" />
          <path
             id="path297"
             d="m 398,1109 c 12,-16 30,-45 56,-83 0,0 0,0 0,0 -26,38 -44,67 -56,83 z"
             class="fil4"
             inkscape:connector-curvature="0"
             style="fill:url(#id4)" />
          <path
             id="path299"
             d="m 454,1026 c 0,0 0,0 0,0 136,-196 483,-624 1138,-624 11,0 22,0 33,1 1,0 1,0 2,0 -12,0 -23,0 -35,0 -654,0 -1002,427 -1138,623 z"
             class="fil5"
             inkscape:connector-curvature="0"
             style="fill:url(#linearGradient4990)" />
          <path
             id="path301"
             d="m 391,1119 c 4,-29 8,-58 15,-87 1,-6 3,-12 4,-18 19,-28 358,-528 975,-603 75,-10 132,-14 174,-14 29,0 50,2 66,6 -11,-1 -22,-1 -33,-1 -655,0 -1002,428 -1138,624 -26,38 -44,67 -56,83 -3,4 -5,8 -7,10 z"
             class="fil6"
             inkscape:connector-curvature="0"
             style="fill:url(#id21)" />
          <path
             id="path303"
             d="m 1210,2204 c 0,0 0,0 0,0 -41,0 -77,-3 -106,-7 -5,0 -10,-1 -14,-1 0,0 0,0 0,0 -7,-1 -13,-2 -19,-3 -1,0 -1,-1 -2,-1 v 0 c -11,-3 -22,-7 -33,-11 12,-20 25,-41 38,-62 73,-119 153,-271 144,-570 70,-42 133,-65 188,-75 -7,2 -14,5 -21,8 31,-10 63,-15 93,-15 221,0 406,244 282,446 -80,128 -184,202 -290,243 13,-5 26,-9 40,-14 -105,48 -212,62 -299,62 -1,0 -1,0 -1,0 z"
             class="fil7"
             inkscape:connector-curvature="0"
             style="fill:#306ba4" />
          <path
             id="path305"
             d="m 2154,1951 c 34,-33 68,-70 100,-110 -6,8 -12,16 -19,24 v 0 0 l -3,4 h -1 v 2 c -6,7 -12,14 -18,21 v 0 0 l -4,4 h -1 v 1 c -16,18 -34,36 -52,54 z"
             class="fil8"
             inkscape:connector-curvature="0"
             style="fill:url(#id10)" />
          <polygon
             id="polygon307"
             points="2154,1951 2154,1953 2151,1955 2150,1955 "
             class="fil9"
             style="fill:url(#id12)" />
          <polygon
             id="polygon309"
             points="2149,1955 2149,1957 2146,1960 2145,1960 "
             class="fil10"
             style="fill:url(#radialGradient4992)" />
          <path
             id="path311"
             d="m 2122,1981 c 8,-7 15,-14 23,-21 v 1 l -4,3 h -1 v 1 l -4,4 v 0 0 c -5,4 -9,8 -14,12 z"
             class="fil11"
             inkscape:connector-curvature="0"
             style="fill:url(#id11)" />
          <path
             id="path313"
             d="m 1639,2091 c 74,-38 145,-99 185,-212 79,-218 -96,-424 -309,-424 -35,0 -72,6 -109,19 -55,10 -118,33 -188,75 -84,50 -178,128 -283,244 -57,63 -104,116 -144,162 -19,22 -36,43 -52,61 -9,-6 -17,-13 -26,-20 v 0 0 l -4,-4 v -1 h -1 l -4,-3 v -1 h -1 c -9,-8 -17,-15 -26,-23 v 0 0 l -4,-4 v 0 h -1 l -4,-4 v -1 h -1 l -3,-3 v -1 h -2 c -11,-12 -23,-23 -34,-35 v -1 h -2 l -3,-4 v -1 h -1 l -3,-3 v -2 h -1 l -4,-3 v -1 h -1 l -3,-4 v -1 h -1 l -4,-4 v 0 0 c -8,-8 -15,-17 -23,-26 v -1 h -1 l -3,-4 v -1 0 c -6,-7 -12,-14 -18,-21 v -1 h -1 c -4,-6 -8,-11 -13,-17 v -1 h -1 l -3,-5 v 0 0 c -3,-4 -6,-8 -9,-12 v -1 h -1 l -8,-12 v -2 h -2 l -3,-4 v 0 0 c -3,-5 -6,-9 -9,-13 v -1 0 l -9,-13 v -1 0 c -5,-7 -9,-14 -13,-21 v -1 h -1 c -4,-7 -9,-14 -13,-21 v -2 h -1 l -3,-6 v -3 h -2 l -3,-5 v -4 h -2 c -2,-4 -5,-9 -7,-13 v 0 0 l -4,-8 v -1 h -1 l -4,-8 v -1 h -1 l -3,-8 v -1 h -1 l -5,-10 -2,-5 c 2,-7 4,-14 7,-21 h 1 v -1 c 1,-3 2,-6 3,-9 h 1 v -1 c 7,-17 16,-34 27,-53 v 0 -1 c 4,-6 8,-13 12,-20 17,-28 37,-57 60,-87 v 0 -1 c 5,-6 9,-11 14,-17 v 0 0 c 6,-8 12,-15 18,-23 v 0 0 c 7,-9 15,-18 22,-27 h 1 v 0 c 10,-12 20,-24 31,-36 v 0 0 l 4,-4 h 1 v -1 c 35,-39 74,-78 116,-117 h 1 v 0 l 4,-4 h 1 v -1 c 11,-10 23,-21 35,-31 h 1 v -1 l 4,-3 v 0 -1 c 16,-13 32,-27 49,-40 h 1 v -1 c 7,-6 15,-11 22,-17 v 0 -1 c 6,-4 12,-8 17,-13 h 2 v -1 c 21,-16 44,-32 67,-48 v 0 -1 l 13,-8 h 1 v -1 l 13,-8 v 0 -1 l 13,-8 h 1 v -1 l 13,-9 v 0 0 c 15,-9 29,-18 44,-27 h 2 v 0 c 7,-5 14,-9 21,-13 h 1 v -1 l 7,-4 h 2 v -1 c 8,-4 15,-8 23,-12 v 0 0 l 8,-5 h 1 v 0 c 7,-4 14,-8 21,-11 10,-5 20,-11 31,-16 h 2 v -1 l 7,-3 h 2 v -1 l 7,-4 h 2 v -1 l 8,-3 h 1 v -1 l 9,-4 v 0 0 l 10,-4 h 4 v -2 l 6,-3 h 3 v -1 l 7,-3 h 2 v -1 c 22,-9 44,-18 66,-27 h 1 v 0 l 12,-4 h 2 v -1 l 11,-4 h 3 v -1 l 10,-3 h 3 v -1 l 11,-4 h 3 v 0 l 11,-4 h 2 v -1 l 13,-4 h 1 v 0 c 16,-5 33,-9 49,-13 h 5 v -1 l 14,-4 h 9 v -2 l 12,-2 h 10 v -2 l 12,-3 h 6 v -1 c 6,-1 13,-2 19,-3 h 4 v -1 c 8,-1 17,-3 25,-4 h 2 v 0 c 11,-2 23,-3 35,-4 h 28 v -3 c 10,-1 20,-1 30,-2 h 29 v -1 c 7,0 14,0 21,0 6,0 13,0 19,0 v 1 h 31 c 12,1 25,2 37,3 v 2 h 19 c 19,2 38,5 58,8 v 1 h 5 c 4,1 9,1 13,2 v 2 h 11 l 11,3 v 2 h 10 l 13,3 v 1 h 6 l 12,4 v 1 h 5 c 6,1 11,3 17,5 5,1 10,2 14,4 v 0 h 1 c 4,1 8,3 13,4 v 0 h 1 c 4,2 8,3 12,5 v 0 h 1 c 38,14 74,32 108,54 v 0 h 1 c 4,3 8,6 12,9 v 0 h 1 c 4,3 9,6 13,9 v 0 0 c 8,6 15,12 22,17 v 1 h 1 c 12,10 24,21 36,31 v 1 0 l 4,4 v 0 h 1 l 4,4 v 1 0 l 4,4 v 0 h 1 l 4,5 v 0 0 c 11,11 21,23 31,36 v 0 0 c 5,6 9,11 14,17 v 1 0 c 5,6 9,12 13,18 v 0 0 c 3,4 6,9 9,13 v 1 0 c 5,7 10,14 14,21 v 1 0 c 7,11 12,21 18,32 v 0 0 l 4,9 v 0 h 1 c 6,13 12,26 17,39 v 2 h 1 l 3,7 c 2,5 4,10 6,15 v 0 0 c 1,4 3,8 4,12 v 2 h 1 c 1,4 2,8 4,12 v 1 0 c 1,5 3,9 4,14 v 0 0 c 3,11 6,22 9,34 v 2 h 1 c 1,6 2,12 4,18 v 4 0 c 2,7 3,14 4,21 v 2 h 1 c 1,10 3,20 4,30 v 6 0 c 5,46 5,93 0,140 v 0 5 c -1,9 -3,18 -4,27 h -1 v 5 c -1,7 -2,15 -4,22 v 0 3 c -2,7 -3,13 -5,19 v 0 2 c -4,16 -8,32 -13,48 v 0 1 c -2,4 -3,8 -5,13 v 0 1 c -1,4 -3,8 -4,12 v 0 1 c -6,15 -12,30 -18,44 h -1 v 1 l -3,8 h -1 v 2 l -4,7 h -1 v 2 l -3,7 h -1 v 3 l -4,6 h -1 v 3 c -4,8 -8,16 -13,25 v 0 0 c -3,4 -5,9 -8,13 h -1 v 2 l -4,7 h -1 v 1 c -2,4 -5,8 -8,13 h -1 v 1 c -2,4 -5,8 -8,12 h -1 v 1 c -3,5 -5,9 -8,13 h -1 v 0 c -2,4 -5,8 -8,11 -55,32 -132,77 -217,120 h -1 v 0 l -8,4 h -1 v 0 l -8,5 h -1 v 0 l -8,4 h -1 v 0 l -9,5 v 0 0 c -19,9 -38,18 -57,27 h -1 v 0 c -14,6 -27,12 -41,18 v 0 0 c -15,6 -30,12 -45,18 v 0 0 l -12,4 h -2 v 1 c -22,8 -44,16 -66,22 h -1 v 1 c -5,1 -10,2 -15,4 h -4 v 1 c -4,1 -9,2 -13,3 h -5 v 1 c -5,1 -10,3 -15,4 h -3 v 0 c -7,2 -14,3 -22,4 h -5 v 1 c -11,2 -22,3 -33,4 h -12 v 0 c -3,0 -6,0 -9,0 z"
             class="fil12"
             inkscape:connector-curvature="0"
             style="fill:url(#id17)" />
          <path
             id="path315"
             d="m 1521,2145 h -4 v 2 l -5,2 h -4 v 2 l -7,3 h -2 v 1 l -8,3 h -1 v 1 c -12,5 -24,9 -36,13 v 0 0 c -5,2 -9,3 -14,4 h -4 v 2 c -4,1 -8,2 -11,3 h -3 v 1 c -5,1 -10,2 -15,3 h -3 v 1 c -13,3 -26,6 -39,8 h -6 v 1 c -8,2 -16,3 -23,4 h -4 v 0 c -13,2 -27,4 -40,5 h -10 v 0 c -18,1 -36,2 -53,2 -23,0 -44,-1 -64,-2 v 0 h -1 c -23,-2 -43,-4 -60,-7 29,4 65,7 106,7 0,0 0,0 0,0 v 0 c 0,0 0,0 1,0 87,0 194,-14 299,-62 14,-4 28,-9 43,-14 -11,6 -21,12 -32,17 z"
             class="fil13"
             inkscape:connector-curvature="0"
             style="fill:url(#id18)" />
          <path
             id="path317"
             d="m 1133,2208 h -11 l -7,-2 v -2 h -9 l -13,-4 v -1 h -3 c -7,-2 -14,-4 -21,-7 v 0 c 1,0 1,1 2,1 6,1 12,2 19,3 3,0 18,5 43,12 z"
             class="fil14"
             inkscape:connector-curvature="0"
             style="fill:url(#id8)" />
          <path
             id="path319"
             d="m 1325,2240 h -26 c -7,-1 -14,-2 -21,-3 v -2 h -19 c -11,-1 -21,-3 -31,-4 v 0 0 c -8,-2 -15,-3 -22,-4 v -1 h -4 l -14,-3 v -1 h -9 l -10,-2 v -3 h -11 l -11,-3 v -1 h -7 l -7,-2 v -3 c 41,11 108,25 192,32 z"
             class="fil15"
             inkscape:connector-curvature="0"
             style="fill:url(#id7)" />
          <path
             id="path321"
             d="m 1328,2242 v -2 c 29,2 60,4 93,4 5,0 9,0 13,-1 -10,1 -21,1 -31,1 v 0 h -2 -10 c -21,0 -42,-1 -63,-2 z"
             class="fil16"
             inkscape:connector-curvature="0"
             style="fill:url(#id9)" />
          <path
             id="path323"
             d="m 1760,1923 c 0,0 0,0 0,0 0,0 0,0 0,0 z m 0,-1 c 0,0 0,0 0,0 0,0 0,0 0,0 z m 1,0 c 0,-1 1,-2 2,-4 -1,2 -2,3 -2,4 z m 2,-5 c 1,-1 2,-2 3,-3 0,0 0,0 0,-1 0,1 0,1 0,1 -1,1 -2,2 -3,3 z"
             class="fil17"
             inkscape:connector-curvature="0"
             style="fill:url(#id3)" />
          <path
             id="path325"
             d="m 1470,2156 c 106,-41 210,-115 290,-243 124,-202 -61,-446 -282,-446 -30,0 -62,5 -93,15 7,-3 14,-6 21,-8 26,-5 51,-7 73,-7 150,0 228,93 228,93 94,89 135,229 59,353 0,1 0,1 0,1 -1,1 -2,2 -3,3 0,1 0,1 0,1 -1,2 -2,3 -2,4 0,0 -1,0 -1,0 0,0 0,0 0,0 0,1 0,1 0,1 0,0 0,0 0,0 -70,109 -159,177 -250,219 -14,5 -27,9 -40,14 z"
             class="fil18"
             inkscape:connector-curvature="0"
             style="fill:url(#radialGradient4994)" />
          <path
             id="path327"
             d="m 1510,2142 c 91,-42 180,-110 250,-219 0,0 0,0 0,0 0,0 0,0 0,-1 0,0 0,0 0,0 0,0 1,0 1,0 0,-1 1,-2 2,-4 0,0 0,0 0,-1 1,-1 2,-2 3,-3 0,0 0,0 0,-1 76,-124 35,-264 -59,-353 0,0 -78,-93 -228,-93 -22,0 -47,2 -73,7 37,-13 74,-19 109,-19 213,0 388,206 309,424 -40,113 -111,174 -185,212 0,0 -1,0 -1,0 -10,0 -19,0 -29,-1 -18,14 -37,27 -56,38 -15,5 -29,10 -43,14 z"
             class="fil19"
             inkscape:connector-curvature="0"
             style="fill:url(#id15)" />
          <path
             id="path329"
             d="m 1434,2243 c 93,-3 187,-18 280,-47 170,-54 305,-128 408,-215 -231,206 -488,260 -688,262 z m -330,-46 c -5,0 -10,-1 -14,-1 v 0 c 4,0 9,1 14,1 0,0 0,0 0,0 z m 1150,-356 c 0,-1 0,-1 0,-1 0,0 0,0 0,0 0,0 0,0 0,1 z"
             class="fil20"
             inkscape:connector-curvature="0"
             style="fill:#fefefe;fill-rule:nonzero" />
          <path
             id="path331"
             d="m 1104,2197 c -5,0 -10,-1 -14,-1 0,0 0,0 0,0 4,0 9,1 14,1 z"
             class="fil21"
             inkscape:connector-curvature="0"
             style="fill:url(#id16)" />
          <path
             id="path333"
             d="m 1421,2244 c -188,0 -323,-46 -331,-48 4,0 9,1 14,1 31,5 75,9 125,9 96,0 216,-16 324,-78 28,-10 58,-22 86,-37 183,-1 473,-169 615,-251 0,0 0,0 0,1 -42,53 -87,99 -132,140 -103,87 -238,161 -408,215 -93,29 -187,44 -280,47 -4,1 -8,1 -13,1 z"
             class="fil22"
             inkscape:connector-curvature="0"
             style="fill:url(#id19)" />
          <path
             id="path335"
             d="m 1553,2128 c 19,-11 38,-24 56,-38 10,1 19,1 29,1 0,0 1,0 1,0 -28,15 -58,27 -86,37 z"
             class="fil23"
             inkscape:connector-curvature="0"
             style="fill:url(#id20)" />
          <g
             id="g365">
            <polygon
               id="polygon337"
               points="2990,1731 2990,731 2803,731 2803,1731 "
               class="fil24"
               style="fill:#292b2c;fill-opacity:1;fill-rule:nonzero" />
            <path
               id="path339"
               d="m 4048,1605 c -103,102 -235,149 -380,149 -371,0 -528,-256 -530,-516 -1,-261 169,-527 530,-527 136,0 265,51 367,153 l -125,121 c -66,-64 -155,-94 -242,-94 -241,0 -345,180 -344,347 2,166 97,339 344,339 87,0 186,-36 252,-102 z"
               class="fil24"
               inkscape:connector-curvature="0"
               style="fill:#292b2c;fill-opacity:1;fill-rule:nonzero" />
            <path
               id="path341"
               d="m 4787,972 c -35,-57 -129,-111 -238,-111 -139,0 -207,59 -207,133 0,87 103,111 223,126 209,25 403,80 403,318 0,223 -197,319 -420,319 -204,0 -361,-63 -436,-246 l 158,-81 c 44,109 159,158 281,158 118,0 230,-41 230,-150 0,-94 -99,-133 -232,-147 -204,-24 -392,-79 -392,-303 0,-205 203,-290 387,-291 155,0 317,44 393,198 z"
               class="fil24"
               inkscape:connector-curvature="0"
               style="fill:#292b2c;fill-opacity:1;fill-rule:nonzero" />
            <path
               id="path343"
               d="m 5859,1731 h -748 c 0,-333 0,-667 0,-1000 h 748 v 183 h -561 v 230 h 541 v 176 h -541 v 225 h 561 z"
               class="fil24"
               inkscape:connector-curvature="0"
               style="fill:#292b2c;fill-opacity:1;fill-rule:nonzero" />
            <path
               id="path345"
               d="m 6453,941 -186,426 h 372 z m 262,601 h -523 l -86,189 H 5902 L 6350,731 h 206 l 448,1000 h -205 z"
               class="fil24"
               inkscape:connector-curvature="0"
               style="fill:#292b2c;fill-opacity:1;fill-rule:nonzero" />
            <path
               id="path347"
               d="m 7691,972 c -34,-57 -128,-111 -237,-111 -140,0 -207,59 -207,133 0,87 103,111 223,126 208,25 403,80 403,318 0,223 -197,319 -420,319 -204,0 -362,-63 -436,-246 l 157,-81 c 45,109 160,158 282,158 118,0 230,-41 230,-150 0,-94 -99,-133 -232,-147 -204,-24 -392,-79 -392,-303 0,-205 202,-290 387,-291 155,0 317,44 392,198 z"
               class="fil24"
               inkscape:connector-curvature="0"
               style="fill:#292b2c;fill-opacity:1;fill-rule:nonzero" />
            <path
               id="path349"
               d="m 2997,375 v 165 c 0,52 -35,83 -99,83 -64,0 -98,-31 -98,-83 V 375 c 0,-5 4,-8 14,-8 h 3 c 10,0 14,3 14,8 v 166 c 0,32 29,54 67,54 39,0 67,-22 67,-54 V 375 c 0,-5 4,-8 14,-8 h 3 c 10,0 15,3 15,8 z"
               class="fil24"
               inkscape:connector-curvature="0"
               style="fill:#292b2c;fill-opacity:1;fill-rule:nonzero" />
            <path
               id="path351"
               d="m 3479,388 c 0,6 -8,21 -12,21 -4,0 -22,-16 -56,-16 -64,0 -85,37 -85,100 0,55 16,102 81,102 18,0 37,-2 46,-4 v -73 h -42 c -5,0 -7,-4 -7,-11 v -6 c 0,-8 2,-11 7,-11 h 63 c 8,0 11,3 11,11 v 96 c 0,20 -39,26 -80,26 -72,0 -112,-41 -112,-127 0,-90 41,-130 117,-130 36,0 69,12 69,22 z"
               class="fil24"
               inkscape:connector-curvature="0"
               style="fill:#292b2c;fill-opacity:1;fill-rule:nonzero" />
            <path
               id="path353"
               d="m 4033,375 v 238 c 0,5 -5,8 -15,8 h -2 c -10,0 -15,-3 -15,-8 v -194 2 l -72,124 -8,5 h -15 l -8,-5 -73,-127 v -1 196 c 0,5 -5,8 -15,8 h -2 c -10,0 -15,-3 -15,-8 V 375 c 0,-5 5,-8 15,-8 h 13 c 8,0 13,3 15,7 l 68,118 9,23 10,-21 68,-120 c 2,-4 7,-7 15,-7 h 12 c 10,0 15,3 15,8 z"
               class="fil24"
               inkscape:connector-curvature="0"
               style="fill:#292b2c;fill-opacity:1;fill-rule:nonzero" />
            <g
               id="g363"
               style="fill:#292b2c;fill-opacity:1">
              <path
                 id="path355"
                 d="m 8071,1461 c 0,-79 74,-103 141,-103 68,0 142,28 142,108 0,75 -76,105 -141,105 -54,1 -116,14 -116,77 v 56 h 253 v 27 h -281 v -83 c 0,-81 75,-102 143,-102 48,0 116,-18 116,-80 0,-65 -66,-83 -116,-83 -49,0 -113,17 -113,78 z"
                 class="fil24"
                 inkscape:connector-curvature="0"
                 style="fill:#292b2c;fill-opacity:1;fill-rule:nonzero" />
              <path
                 id="path357"
                 d="m 8441,1591 c 0,158 227,157 227,0 v -88 c 0,-157 -227,-158 -227,0 z m -28,-88 c 0,-193 283,-193 283,0 v 88 c 0,193 -283,193 -283,0 z"
                 class="fil24"
                 inkscape:connector-curvature="0"
                 style="fill:#292b2c;fill-opacity:1;fill-rule:nonzero" />
              <polygon
                 id="polygon359"
                 points="8822,1363 8822,1707 8884,1707 8884,1731 8732,1731 8732,1707 8794,1707 8794,1388 8732,1388 8732,1363 "
                 class="fil24"
                 style="fill:#292b2c;fill-opacity:1;fill-rule:nonzero" />
              <polygon
                 id="polygon361"
                 points="8945,1397 8945,1363 9228,1363 9036,1731 9006,1716 9172,1397 "
                 class="fil24"
                 style="fill:#292b2c;fill-opacity:1;fill-rule:nonzero" />
            </g>
          </g>
        </g>
      </g>
    </g>
  </g>
</svg>
