<?xml version="1.0" encoding="UTF-8" standalone="no"?>
<!-- Created with Inkscape (http://www.inkscape.org/) -->

<svg
   xmlns:dc="http://purl.org/dc/elements/1.1/"
   xmlns:cc="http://creativecommons.org/ns#"
   xmlns:rdf="http://www.w3.org/1999/02/22-rdf-syntax-ns#"
   xmlns:svg="http://www.w3.org/2000/svg"
   xmlns="http://www.w3.org/2000/svg"
   xmlns:sodipodi="http://sodipodi.sourceforge.net/DTD/sodipodi-0.dtd"
   xmlns:inkscape="http://www.inkscape.org/namespaces/inkscape"
   width="26.458334mm"
   height="26.458334mm"
   viewBox="0 0 26.458334 26.458334"
   version="1.1"
   id="svg70"
   inkscape:version="0.92.2 5c3e80d, 2017-08-06"
   sodipodi:docname="book-email.svg"
   inkscape:export-filename="/home/archaeoz/Ledger/Universitas Gadjah Mada/ICSEAS/2017/website/images/email.svg.png"
   inkscape:export-xdpi="384"
   inkscape:export-ydpi="384">
  <defs
     id="defs64" />
  <sodipodi:namedview
     id="base"
     pagecolor="#ffffff"
     bordercolor="#666666"
     borderopacity="1.0"
     inkscape:pageopacity="0.0"
     inkscape:pageshadow="2"
     inkscape:zoom="2.8"
     inkscape:cx="12.389763"
     inkscape:cy="30.760733"
     inkscape:document-units="mm"
     inkscape:current-layer="layer1"
     showgrid="false"
     fit-margin-top="0"
     fit-margin-left="0"
     fit-margin-right="0"
     fit-margin-bottom="0"
     inkscape:window-width="1366"
     inkscape:window-height="709"
     inkscape:window-x="0"
     inkscape:window-y="0"
     inkscape:window-maximized="1" />
  <metadata
     id="metadata67">
    <rdf:RDF>
      <cc:Work
         rdf:about="">
        <dc:format>image/svg+xml</dc:format>
        <dc:type
           rdf:resource="http://purl.org/dc/dcmitype/StillImage" />
        <dc:title></dc:title>
      </cc:Work>
    </rdf:RDF>
  </metadata>
  <g
     inkscape:label="Layer 1"
     inkscape:groupmode="layer"
     id="layer1"
     transform="translate(-142.36313,-123.41347)">
    <g
       style="fill:#ffffff;fill-rule:evenodd;stroke:none;stroke-width:1;fill-opacity:1"
       id="g3669"
       transform="matrix(0.44097223,0,0,0.44097223,142.36313,123.41347)">
      <path
         style="fill:#ffffff;fill-opacity:1"
         id="path120"
         d="M 30,60 C 46.568543,60 60,46.568543 60,30 60,13.431457 46.568543,0 30,0 13.431457,0 0,13.431457 0,30 0,46.568543 13.431457,60 30,60 Z"
         inkscape:connector-curvature="0" />
    </g>
    <g
       transform="matrix(0.03909733,0,0,0.03909733,145.58321,126.63372)"
       id="g6"
       style="fill:#ffffff">
      <path
         inkscape:connector-curvature="0"
         d="m 67,148.7 c 11,5.8 163.8,89.1 169.5,92.1 5.7,3 11.5,4.4 20.5,4.4 9,0 14.8,-1.4 20.5,-4.4 5.7,-3 158.5,-86.3 169.5,-92.1 4.1,-2.1 11,-5.9 12.5,-10.2 2.6,-7.6 -0.2,-10.5 -11.3,-10.5 H 257 65.8 c -11.1,0 -13.9,3 -11.3,10.5 1.5,4.4 8.4,8.1 12.5,10.2 z"
         id="path2"
         style="fill:#343d46;fill-opacity:1" />
      <path
         inkscape:connector-curvature="0"
         d="m 455.7,153.2 c -8.2,4.2 -81.8,56.6 -130.5,88.1 l 82.2,92.5 c 2,2 2.9,4.4 1.8,5.6 -1.2,1.1 -3.8,0.5 -5.9,-1.4 l -98.6,-83.2 c -14.9,9.6 -25.4,16.2 -27.2,17.2 -7.7,3.9 -13.1,4.4 -20.5,4.4 -7.4,0 -12.8,-0.5 -20.5,-4.4 -1.9,-1 -12.3,-7.6 -27.2,-17.2 L 110.7,338 c -2,2 -4.7,2.6 -5.9,1.4 -1.2,-1.1 -0.3,-3.6 1.7,-5.6 l 82.1,-92.5 C 139.9,209.8 65.5,157.4 57.3,153.2 48.5,148.7 48,154 48,158.1 c 0,4.1 0,205 0,205 0,9.3 13.7,20.9 23.5,20.9 H 257 442.5 c 9.8,0 21.5,-11.7 21.5,-20.9 0,0 0,-201 0,-205 0,-4.2 0.6,-9.4 -8.3,-4.9 z"
         id="path4"
         style="fill:#343d46;fill-opacity:1" />
    </g>
  </g>
</svg>
