<?xml version="1.0" encoding="UTF-8" standalone="no"?>
<svg
   xmlns:dc="http://purl.org/dc/elements/1.1/"
   xmlns:cc="http://creativecommons.org/ns#"
   xmlns:rdf="http://www.w3.org/1999/02/22-rdf-syntax-ns#"
   xmlns:svg="http://www.w3.org/2000/svg"
   xmlns="http://www.w3.org/2000/svg"
   xmlns:sodipodi="http://sodipodi.sourceforge.net/DTD/sodipodi-0.dtd"
   xmlns:inkscape="http://www.inkscape.org/namespaces/inkscape"
   height="190.50002"
   version="1.0"
   viewBox="0 0 190.50002 190.50002"
   width="190.50002"
   xml:space="preserve"
   id="svg68"
   sodipodi:docname="female-speaker-square.svg"
   inkscape:version="0.91 r13725"><metadata
     id="metadata74"><rdf:RDF><cc:Work
         rdf:about=""><dc:format>image/svg+xml</dc:format><dc:type
           rdf:resource="http://purl.org/dc/dcmitype/StillImage" /><dc:title></dc:title></cc:Work></rdf:RDF></metadata><defs
     id="defs72" /><sodipodi:namedview
     pagecolor="#ffffff"
     bordercolor="#666666"
     borderopacity="1"
     objecttolerance="10"
     gridtolerance="10"
     guidetolerance="10"
     inkscape:pageopacity="0"
     inkscape:pageshadow="2"
     inkscape:window-width="1366"
     inkscape:window-height="715"
     id="namedview70"
     showgrid="false"
     fit-margin-top="0"
     fit-margin-left="0"
     fit-margin-right="0"
     fit-margin-bottom="0"
     inkscape:zoom="1.4142136"
     inkscape:cx="210.30831"
     inkscape:cy="125.07493"
     inkscape:window-x="0"
     inkscape:window-y="25"
     inkscape:window-maximized="1"
     inkscape:current-layer="g4250" /><g
     id="Artboard"
     transform="translate(78.167141,100.893)" /><g
     id="Multicolor"
     transform="matrix(1.0149811,0,0,1.0149811,78.1675,99.244718)"><g
       id="g4543"
       transform="matrix(2.7214286,0,0,2.7214286,-8.7169155,-154.77082)"><rect
         style="fill:#f29871;fill-opacity:1;stroke-width:0.98524004"
         id="rect4623"
         width="68.966805"
         height="68.966805"
         x="-25.095949"
         y="20.941557" /><g
         id="g4250"
         transform="matrix(0.36203045,0,0,0.36203045,76.590903,8.3220333)"><g
           transform="translate(-8.9223392,107.11538)"
           id="Artboard-3" /><g
           id="g4384"
           transform="translate(-310.62928,34.857641)"><path
             d="m 125,144.23571 -19.05,-2.72143 -44.19872,10.53737 c -6.452507,1.93494 -11.644993,6.74915 -14.064343,13.03837 L 37.914287,190.5 125,190.5 Z"
             style="fill:#454c62;fill-opacity:1"
             id="path7"
             inkscape:connector-curvature="0" /><path
             d="m 125,144.23571 19.05,-2.72143 44.19872,10.53737 c 6.45251,1.93494 11.645,6.74915 14.06435,13.03837 L 212.08572,190.5 125,190.5 Z"
             style="fill:#454c62;fill-opacity:1"
             id="path11"
             inkscape:connector-curvature="0" /><path
             d="m 125,139.8025 c -8.93717,-2.97724 -19.48271,-8.62965 -27.214284,-20.59577 l 0,36.97333 c 0,4.69447 0.89535,9.34539 2.639784,13.7024 l 8.24593,20.61754 32.65714,0 8.24593,-20.61754 c 1.74444,-4.35701 2.63979,-9.00793 2.63979,-13.7024 l 0,-36.97333 C 144.48271,131.17285 133.93717,136.82526 125,139.8025 Z"
             style="fill:#f4d0a1"
             id="path17"
             inkscape:connector-curvature="0" /><path
             d="m 97.785716,119.20673 0,36.97333 c 0,4.69447 0.89535,9.34539 2.639784,13.7024 l 8.24593,20.61754 16.32857,0 0,-50.6975 c -8.93717,-2.97724 -19.48271,-8.62965 -27.214284,-20.59577 z"
             style="fill:#f8e1c2"
             id="path19"
             inkscape:connector-curvature="0" /><path
             inkscape:connector-curvature="0"
             id="path21"
             style="fill:#ffffff"
             d="m 124.93741,179.61428 c -7.85677,0 -15.25361,-1.05319 -21.83402,-2.87927 l 5.50545,13.76499 32.65714,0 5.50545,-13.76499 c -6.58041,1.82608 -13.97998,2.87927 -21.83402,2.87927 z" /><path
             inkscape:connector-curvature="0"
             id="path25"
             style="fill:#4c6fac;fill-opacity:1"
             d="m 92.342859,190.5 16.328571,0 -8.24593,-20.61754 c -1.744434,-4.35701 -2.639784,-9.00793 -2.639784,-13.7024 l 0,-20.10863 c -5.442857,5.44285 -10.885714,10.88571 -16.328572,19.05 l 10.885715,5.44285 -13.607143,13.60715 z" /><path
             inkscape:connector-curvature="0"
             id="path29"
             style="fill:#4c6fac;fill-opacity:1"
             d="m 157.65715,190.5 -16.32858,0 8.24593,-20.61754 c 1.74444,-4.35701 2.63979,-9.00793 2.63979,-13.7024 l 0,-20.10863 c 5.44286,5.44285 10.88571,10.88571 16.32857,19.05 l -10.88571,5.44285 13.60714,13.60715 z" /><path
             d="m 165.82143,74.488218 c -0.75383,0 -1.72266,0 -2.72143,0 0,-0.01905 0,-0.0381 0,-0.05715 -0.049,-24.514628 -2.78674,-46.207136 -38.1,-46.207136 -35.313256,0 -38.051013,21.692508 -38.099998,46.207136 0,0.01905 0,0.0381 0,0.05715 -1.001486,0 -1.967593,0 -2.721429,0 -2.721429,0 -5.442857,3.023508 -5.442857,6.047015 0,8.411936 2.351314,19.403786 11.370128,20.963167 6.645729,24.77044 22.364696,34.12943 34.894156,38.3041 12.52946,-4.17467 28.24843,-13.53366 34.89416,-38.3041 9.01881,-1.55666 11.37013,-12.551231 11.37013,-20.963167 0,-3.023507 -2.72143,-6.047015 -5.44286,-6.047015 z"
             style="fill:#f8e1c2"
             id="path45"
             inkscape:connector-curvature="0" /><path
             d="m 86.900002,74.431068 c 0,0.01905 0,0.0381 0,0.05715 -1.001486,0 -1.967593,0 -2.721429,0 -2.721429,0 -5.442857,3.023508 -5.442857,6.047015 0,8.411936 2.351314,19.403786 11.370128,20.963167 6.645729,24.77044 22.364696,34.12943 34.894156,38.3041 l 0,-111.578568 c -35.313256,0 -38.051013,21.692508 -38.099998,46.207136 z"
             style="fill:#fcf1e2"
             id="path47"
             inkscape:connector-curvature="0" /><path
             d="m 108.57346,78.556754 c 3.89164,0 7.14919,0.753836 8.05271,3.0861 0.0109,-2.721428 -2.7296,-6.656614 -8.05271,-6.656614 -5.31495,0 -8.30852,3.935186 -8.05271,6.656614 0.90352,-2.329543 4.16107,-3.0861 8.05271,-3.0861 z"
             style="fill:#3e3e3f"
             id="path49"
             inkscape:connector-curvature="0" /><path
             d="m 141.02105,78.556754 c 3.89165,0 7.1492,0.753836 8.05271,3.0861 0.0109,-2.721428 -2.72959,-6.656614 -8.05271,-6.656614 -5.31495,0 -8.30852,3.935186 -8.05271,6.656614 0.90352,-2.329543 4.16107,-3.0861 8.05271,-3.0861 z"
             style="fill:#3e3e3f"
             id="path55"
             inkscape:connector-curvature="0" /><path
             inkscape:connector-curvature="0"
             id="path61"
             style="fill:#3e3e3f"
             d="m 152.21429,119.20673 c 29.93571,13.60715 21.97281,46.38948 38.1,70.75715 -35.37857,-16.32857 -38.1,-32.65715 -38.1,-54.42857 0,0 0,-13.60715 0,-16.32858 z" /><path
             d="m 111.62146,28.155896 c -0.74567,-0.478971 -1.70362,-0.827314 -2.95003,-0.941614 C 78.735716,24.492854 76.202066,64.084197 86.883673,75.127754 91.75503,73.655461 109.65659,59.335304 113.37678,43.006732 122.89906,61.866233 163.79125,76.444926 163.1,76.199997 192.6139,25.314725 116.35402,6.602182 111.62146,28.155896 Z"
             style="fill:#3e3e3f"
             id="path65"
             inkscape:connector-curvature="0" /><path
             inkscape:connector-curvature="0"
             id="path67"
             style="fill:#f79392"
             d="m 111.39286,109.86679 27.21428,0 c 0,0 0,8.16429 -13.60714,8.16429 -13.60714,0 -13.60714,-8.16429 -13.60714,-8.16429 z" /></g></g></g></g></svg>