<?xml version="1.0" encoding="UTF-8" standalone="no"?>
<!-- Created with Inkscape (http://www.inkscape.org/) -->

<svg
   xmlns:dc="http://purl.org/dc/elements/1.1/"
   xmlns:cc="http://creativecommons.org/ns#"
   xmlns:rdf="http://www.w3.org/1999/02/22-rdf-syntax-ns#"
   xmlns:svg="http://www.w3.org/2000/svg"
   xmlns="http://www.w3.org/2000/svg"
   xmlns:sodipodi="http://sodipodi.sourceforge.net/DTD/sodipodi-0.dtd"
   xmlns:inkscape="http://www.inkscape.org/namespaces/inkscape"
   width="70.555992mm"
   height="53.763592mm"
   viewBox="0 0 250.00155 190.50091"
   id="svg5285"
   version="1.1"
   inkscape:version="0.91 r13725"
   sodipodi:docname="female-speaker.svg">
  <defs
     id="defs5287" />
  <sodipodi:namedview
     id="base"
     pagecolor="#ffffff"
     bordercolor="#666666"
     borderopacity="1.0"
     inkscape:pageopacity="0.0"
     inkscape:pageshadow="2"
     inkscape:zoom="1.979899"
     inkscape:cx="113.16332"
     inkscape:cy="119.20164"
     inkscape:document-units="px"
     inkscape:current-layer="layer1"
     showgrid="false"
     fit-margin-top="0"
     fit-margin-left="0"
     fit-margin-right="0"
     fit-margin-bottom="0"
     inkscape:window-width="1366"
     inkscape:window-height="715"
     inkscape:window-x="0"
     inkscape:window-y="25"
     inkscape:window-maximized="1" />
  <metadata
     id="metadata5290">
    <rdf:RDF>
      <cc:Work
         rdf:about="">
        <dc:format>image/svg+xml</dc:format>
        <dc:type
           rdf:resource="http://purl.org/dc/dcmitype/StillImage" />
        <dc:title />
      </cc:Work>
    </rdf:RDF>
  </metadata>
  <g
     inkscape:label="Layer 1"
     inkscape:groupmode="layer"
     id="layer1"
     transform="translate(-12.142086,-454.25461)">
    <g
       id="g4150-5-7"
       transform="matrix(0.99999374,0,0,0.99999374,12.142005,454.25473)">
      <g
         id="Multicolor-3-0"
         transform="matrix(1.015,0,0,1.015,-5.1396,99.245)">
        <g
           id="g4543-5-9"
           transform="matrix(2.7214,0,0,2.7214,-8.7169,-154.77)">
          <path
             style="fill:#f29871;stroke-width:0.98523998"
             d="m 5.0637999,20.941999 90.5080031,0 0,68.967003 -90.5080031,0 z"
             id="rect4623-6-3"
             inkscape:connector-curvature="0"
             sodipodi:nodetypes="ccccc" />
        </g>
      </g>
    </g>
    <g
       id="g4374"
       transform="matrix(1.2499922,0,0,-1.2499922,-444.63841,877.72816)">
      <g
         transform="matrix(0.93993996,0,0,0.93993996,499.70752,257.28693)"
         id="g4930">
        <path
           d="m 0,0 c 0,-20.143 -16.329,-9.693 -36.47,-9.693 -20.141,0 -36.469,-10.45 -36.469,9.693 l 0,32.968 c 0,20.142 16.328,36.47 36.469,36.47 C -16.329,69.438 0,53.11 0,32.968 L 0,0 Z"
           id="path4932"
           inkscape:connector-curvature="0"
           style="fill:#3e3e3f" />
      </g>
      <g
         transform="matrix(0.93993996,0,0,0.93993996,500.53462,287.98442)"
         id="g4934">
        <path
           d="m 0,0 c 0,20.547 -16.656,37.202 -37.202,37.202 -20.546,0 -37.201,-16.655 -37.201,-37.202 0,-20.546 16.655,-37.201 37.201,-37.201 C -16.656,-37.201 0,-20.546 0,0"
           id="path4936"
           inkscape:connector-curvature="0"
           style="fill:#3e3e3f" />
      </g>
      <g
         transform="matrix(0.93993996,0,0,0.80848771,477.27112,216.69116)"
         id="g4938">
        <path
           d="M 0,0 -12.604,-35.355 -24.894,0 l 0,27.295 L 0,27.295 0,0 Z"
           id="path4940"
           inkscape:connector-curvature="0"
           style="fill:#f4d0a1;fill-opacity:1" />
      </g>
      <path
         style="fill:#fcf1e2;fill-opacity:1"
         inkscape:connector-curvature="0"
         id="path4944"
         d="m 465.56892,309.86341 c -11.36011,0 -29.32613,-6.45833 -29.32613,-36.72063 0,-17.47255 6.81081,-25.71112 9.29319,-28.87778 2.28405,-2.91287 14.00886,-12.33013 20.03294,-12.33013 l 0,77.92854 z" />
      <g
         transform="matrix(0.93993996,0,0,0.93993996,430.59372,265.92685)"
         id="g4946">
        <path
           d="M 0,0 C -0.534,5.145 1.918,9.71 5.473,10.197 9.03,10.686 12.345,6.91 12.878,1.766 13.412,-3.377 10.959,-7.941 7.403,-8.43 3.847,-8.917 0.532,-5.143 0,0"
           id="path4948"
           inkscape:connector-curvature="0"
           style="fill:#fcf1e2;fill-opacity:1" />
      </g>
      <g
         transform="matrix(0.93993996,0,0,0.93993996,465.47492,309.86341)"
         id="g4950">
        <path
           d="m 0,0 c 12.086,0 31.199,-6.871 31.199,-39.067 0,-18.589 -7.245,-27.354 -9.886,-30.723 C 18.883,-72.889 6.41,-82.908 0,-82.908 L 0,0 Z"
           id="path4952"
           inkscape:connector-curvature="0"
           style="fill:#f8e1c2;fill-opacity:1" />
      </g>
      <g
         transform="matrix(0.93993996,0,0,0.93993996,500.55342,265.92685)"
         id="g4954">
        <path
           d="M 0,0 C 0.532,5.145 -1.919,9.71 -5.474,10.197 -9.031,10.686 -12.345,6.91 -12.878,1.766 -13.412,-3.377 -10.96,-7.941 -7.404,-8.43 -3.848,-8.917 -0.534,-5.143 0,0"
           id="path4956"
           inkscape:connector-curvature="0"
           style="fill:#f8e1c2;fill-opacity:1" />
      </g>
      <g
         transform="matrix(0.93993996,0,0,0.93993996,739.32694,120.43215)"
         id="g4958" />
      <g
         transform="matrix(0.93993996,0,0,0.93993996,739.46794,183.15435)"
         id="g4966" />
      <g
         transform="matrix(0.93993996,0,0,0.93993996,463.91462,318.57007)"
         id="g4970">
        <path
           d="m 0,0 c -22.084,0 -28.798,-19.348 -28.798,-28.258 -8.01,-11.132 0.721,-21.092 6.903,-24.591 l 0,5.478 c 0,7.199 6.845,13.865 17.126,12.756 9.214,-0.994 15.017,4.212 19.918,13.065 C 21.201,-9.693 13.648,0 0,0"
           id="path4972"
           inkscape:connector-curvature="0"
           style="fill:#3e3e3f" />
      </g>
      <g
         transform="matrix(0.93993996,0,0,0.93993996,477.27112,301.73575)"
         id="g4974">
        <path
           d="m 0,0 c 0,0 5.16,-20.948 19.291,-27.899 2.516,18.833 4.002,14.866 0,24.782 C 15.29,6.8 0,14.167 0,14.167 L 0,0 Z"
           id="path4976"
           inkscape:connector-curvature="0"
           style="fill:#3e3e3f" />
      </g>
      <g
         transform="matrix(0.93993996,0,0,0.93993996,465.42792,179.87065)"
         id="g4978">
        <path
           style="fill:#3f4460"
           d="M 0,6.9489441 0,28.596 -12.289,50.34 c 0,0 -20.305,-6.859 -24.838,-13.942 C -40.899,25.17 -41.934,6.9489441 -41.934,6.9489441 Z"
           id="path4980"
           inkscape:connector-curvature="0"
           sodipodi:nodetypes="cccccc" />
      </g>
      <g
         transform="matrix(0.93993996,0,0,0.93993996,465.42792,179.87065)"
         id="g4982">
        <path
           style="fill:#3f4460"
           d="M 0,6.9489441 0,28.596 12.289,50.34 c 0,0 20.305,-6.859 24.838,-13.942 C 40.899,25.17 41.934,6.9489441 41.934,6.9489441 Z"
           id="path4984"
           inkscape:connector-curvature="0"
           sodipodi:nodetypes="cccccc" />
      </g>
      <g
         transform="matrix(0.93993996,0,0,0.93993996,465.42792,206.74917)"
         id="g4986">
        <path
           d="m 0,0 -12.289,21.744 -11.289,-3.61 9.61,-21.56 L 0,0 Z"
           id="path4988"
           inkscape:connector-curvature="0"
           style="fill:#ffffff" />
      </g>
      <g
         transform="matrix(0.93993996,0,0,0.93993996,465.42792,206.74917)"
         id="g4990">
        <path
           d="M 0,0 12.289,21.744 23.578,18.134 13.968,-3.426 0,0 Z"
           id="path4992"
           inkscape:connector-curvature="0"
           style="fill:#ffffff" />
      </g>
    </g>
  </g>
</svg>
