<?xml version="1.0" encoding="UTF-8" standalone="no"?>
<!-- Created with Inkscape (http://www.inkscape.org/) -->

<svg
   xmlns:dc="http://purl.org/dc/elements/1.1/"
   xmlns:cc="http://creativecommons.org/ns#"
   xmlns:rdf="http://www.w3.org/1999/02/22-rdf-syntax-ns#"
   xmlns:svg="http://www.w3.org/2000/svg"
   xmlns="http://www.w3.org/2000/svg"
   xmlns:sodipodi="http://sodipodi.sourceforge.net/DTD/sodipodi-0.dtd"
   xmlns:inkscape="http://www.inkscape.org/namespaces/inkscape"
   id="svg2"
   height="53.763mm"
   width="70.556mm"
   version="1.1"
   viewBox="0 0 250.00001 190.50001"
   inkscape:version="0.91 r13725"
   sodipodi:docname="male-speaker.svg">
  <sodipodi:namedview
     pagecolor="#ffffff"
     bordercolor="#666666"
     borderopacity="1"
     objecttolerance="10"
     gridtolerance="10"
     guidetolerance="10"
     inkscape:pageopacity="0"
     inkscape:pageshadow="2"
     inkscape:window-width="1366"
     inkscape:window-height="715"
     id="namedview616"
     showgrid="false"
     inkscape:zoom="1.4085479"
     inkscape:cx="41.299468"
     inkscape:cy="80.210814"
     inkscape:window-x="0"
     inkscape:window-y="25"
     inkscape:window-maximized="1"
     inkscape:current-layer="layer1"
     inkscape:snap-bbox="true"
     inkscape:snap-page="false"
     inkscape:bbox-paths="false"
     inkscape:bbox-nodes="false"
     inkscape:snap-bbox-edge-midpoints="false"
     inkscape:snap-bbox-midpoints="false"
     inkscape:object-paths="false"
     inkscape:snap-intersection-paths="false"
     inkscape:object-nodes="false"
     inkscape:snap-smooth-nodes="false"
     inkscape:snap-midpoints="false"
     inkscape:snap-object-midpoints="false"
     inkscape:snap-nodes="false" />
  <defs
     id="defs4">
    <clipPath
       id="clipPath4176"
       clipPathUnits="userSpaceOnUse">
      <path
         id="path4178"
         d="m0 800h800v-800h-800v800z" />
    </clipPath>
    <clipPath
       id="clipPath4196"
       clipPathUnits="userSpaceOnUse">
      <path
         id="path4198"
         d="m619.53 143.77c0-46.945 38.056-85.001 85.001-85.001 46.944 0 84.999 38.056 84.999 85.001 0 46.944-38.055 85.001-84.999 85.001-46.945 0-85.001-38.057-85.001-85.001" />
    </clipPath>
    <clipPath
       id="clipPath4260"
       clipPathUnits="userSpaceOnUse">
      <path
         id="path4262"
         d="m0 800h800v-800h-800v800z" />
    </clipPath>
    <clipPath
       id="clipPath4276"
       clipPathUnits="userSpaceOnUse">
      <path
         id="path4278"
         d="m10.47 393.12c0-46.943 38.055-85 84.999-85 46.945 0 85.001 38.057 85.001 85 0 46.945-38.056 85.001-85.001 85.001-46.944 0-84.999-38.056-84.999-85.001" />
    </clipPath>
    <clipPath
       id="clipPath4342"
       clipPathUnits="userSpaceOnUse">
      <path
         id="path4344"
         d="m0 800h800v-800h-800v800z" />
    </clipPath>
    <clipPath
       id="clipPath4358"
       clipPathUnits="userSpaceOnUse">
      <path
         id="path4360"
         d="m213.49 393.12c0-46.944 38.056-85.001 85.001-85.001 46.944 0 84.999 38.057 84.999 85.001s-38.055 85-84.999 85c-46.945 0-85.001-38.056-85.001-85" />
    </clipPath>
    <clipPath
       id="clipPath4440"
       clipPathUnits="userSpaceOnUse">
      <path
         id="path4442"
         d="m0 800h800v-800h-800v800z" />
    </clipPath>
    <clipPath
       id="clipPath4456"
       clipPathUnits="userSpaceOnUse">
      <path
         id="path4458"
         d="m619.53 656.23c0-46.945 38.055-85.002 85-85.002 46.944 0 85 38.057 85 85.002 0 46.944-38.056 84.999-85 84.999-46.945 0-85-38.055-85-84.999" />
    </clipPath>
    <clipPath
       id="clipPath4506"
       clipPathUnits="userSpaceOnUse">
      <path
         id="path4508"
         d="m0 800h800v-800h-800v800z" />
    </clipPath>
    <clipPath
       id="clipPath4522"
       clipPathUnits="userSpaceOnUse">
      <path
         id="path4524"
         d="m619.53 404.13c0-46.945 38.056-85.001 85.001-85.001 46.944 0 84.999 38.056 84.999 85.001 0 46.944-38.055 85-84.999 85-46.945 0-85.001-38.056-85.001-85" />
    </clipPath>
    <clipPath
       id="clipPath4600"
       clipPathUnits="userSpaceOnUse">
      <path
         id="path4602"
         d="m0 800h800v-800h-800v800z" />
    </clipPath>
    <clipPath
       id="clipPath4616"
       clipPathUnits="userSpaceOnUse">
      <path
         id="path4618"
         d="m416.51 143.77c0-46.944 38.055-85 85-85 46.944 0 85 38.056 85 85 0 46.945-38.056 85.001-85 85.001-46.945 0-85-38.056-85-85.001" />
    </clipPath>
    <clipPath
       id="clipPath4662"
       clipPathUnits="userSpaceOnUse">
      <path
         id="path4664"
         d="m0 800h800v-800h-800v800z" />
    </clipPath>
    <clipPath
       id="clipPath4678"
       clipPathUnits="userSpaceOnUse">
      <path
         id="path4680"
         d="m213.49 143.77c0-46.943 38.055-84.999 85-84.999 46.944 0 85 38.056 85 84.999 0 46.946-38.056 85.002-85 85.002-46.945 0-85-38.056-85-85.002" />
    </clipPath>
    <clipPath
       id="clipPath4746"
       clipPathUnits="userSpaceOnUse">
      <path
         id="path4748"
         d="m0 800h800v-800h-800v800z" />
    </clipPath>
    <clipPath
       id="clipPath4762"
       clipPathUnits="userSpaceOnUse">
      <path
         id="path4764"
         d="m416.51 404.13c0-46.945 38.055-85.001 85-85.001 46.944 0 85 38.056 85 85.001 0 46.944-38.056 85-85 85-46.945 0-85-38.056-85-85" />
    </clipPath>
    <clipPath
       id="clipPath4826"
       clipPathUnits="userSpaceOnUse">
      <path
         id="path4828"
         d="m0 800h800v-800h-800v800z" />
    </clipPath>
    <clipPath
       id="clipPath4842"
       clipPathUnits="userSpaceOnUse">
      <path
         id="path4844"
         d="m416.51 653.48c0-46.945 38.055-85.002 85-85.002 46.944 0 85 38.057 85 85.002 0 46.944-38.056 85-85 85-46.945 0-85-38.056-85-85" />
    </clipPath>
    <clipPath
       id="clipPath4910"
       clipPathUnits="userSpaceOnUse">
      <path
         id="path4912"
         d="m0 800h800v-800h-800v800z" />
    </clipPath>
    <clipPath
       id="clipPath4998"
       clipPathUnits="userSpaceOnUse">
      <path
         id="path5000"
         d="m0 800h800v-800h-800v800z" />
    </clipPath>
    <clipPath
       id="clipPath5014"
       clipPathUnits="userSpaceOnUse">
      <path
         id="path5016"
         d="m10.47 143.77c0-46.945 38.054-85.001 84.999-85.001s85.001 38.056 85.001 85.001-38.056 85.001-85.001 85.001-84.999-38.056-84.999-85.001" />
    </clipPath>
    <clipPath
       id="clipPath5086"
       clipPathUnits="userSpaceOnUse">
      <path
         id="path5088"
         d="m0 800h800v-800h-800v800z" />
    </clipPath>
    <clipPath
       id="clipPath5102"
       clipPathUnits="userSpaceOnUse">
      <path
         id="path5104"
         d="m10.471 656.23c0-46.945 38.054-85.001 84.998-85.001s85 38.056 85 85.001c0 46.944-38.056 85-85 85s-84.998-38.056-84.998-85" />
    </clipPath>
    <clipPath
       id="clipPath5178"
       clipPathUnits="userSpaceOnUse">
      <path
         id="path5180"
         d="m0 800h800v-800h-800v800z" />
    </clipPath>
  </defs>
  <metadata
     id="metadata7">
    <rdf:RDF>
      <cc:Work
         rdf:about="">
        <dc:format>image/svg+xml</dc:format>
        <dc:type
           rdf:resource="http://purl.org/dc/dcmitype/StillImage" />
        <dc:title></dc:title>
      </cc:Work>
    </rdf:RDF>
  </metadata>
  <g
     id="layer1"
     transform="translate(-243.57 -368.54)">
    <path
       inkscape:connector-curvature="0"
       id="rect4623"
       d="m 243.57008,368.53988 250.00311,0 0,190.5021 -250.00311,0 z"
       style="fill:#f29871;stroke-width:0.98523998" />
    <path
       style="fill:#f4d0a1;fill-opacity:1"
       inkscape:connector-curvature="0"
       d="m 384.47167,534.32281 -31.68072,0 0,-34.7363 31.68072,0 0,34.7363 z"
       id="path4460" />
    <path
       id="path4468"
       d="m 368.62749,400.20086 c 15.38095,0 39.70463,8.74421 39.70463,49.71764 0,23.65683 -7.71211,39.15485 -11.07311,43.44233 -3.09248,3.94514 -20.47654,12.34955 -28.63152,12.34955 l 0,-105.50952 z"
       inkscape:connector-curvature="0"
       style="fill:#f8e1c2" />
    <path
       id="path4472"
       d="m 415.98187,459.68336 c 0.67831,-6.54638 -2.44089,-12.35592 -6.96508,-12.97696 -4.52672,-0.62104 -8.7442,4.18439 -9.42378,10.73078 -0.67959,6.54511 2.44089,12.35337 6.96889,12.97568 4.52291,0.6185 8.74166,-4.18439 9.41997,-10.7295"
       inkscape:connector-curvature="0"
       style="fill:#f8e1c2" />
    <path
       id="path4476"
       d="m 368.62749,400.20086 c -15.38095,0 -39.70463,8.74421 -39.70463,49.71764 0,23.65683 7.71084,39.15485 11.07184,43.44233 3.09375,3.94514 20.47654,12.34955 28.63279,12.34955 l 0,-105.50952 z"
       inkscape:connector-curvature="0"
       style="fill:#fcf1e2" />
    <path
       id="path4480"
       d="m 321.27311,459.68336 c -0.67704,-6.54638 2.44217,-12.35592 6.96635,-12.97696 4.52545,-0.62104 8.74421,4.18439 9.42251,10.73078 0.67959,6.54511 -2.44089,12.35337 -6.96762,12.97568 -4.52418,0.6185 -8.74293,-4.18439 -9.42124,-10.7295"
       inkscape:connector-curvature="0"
       style="fill:#fcf1e2" />
    <path
       style="fill:#3f4460"
       inkscape:connector-curvature="0"
       d="m 388.31755,520.28576 c 0,0 30.12049,2.83226 34.56831,5.8127 3.87387,2.59487 11.92704,27.45006 13.78889,32.90504 l -68.03962,0 0,-37.66424 19.68242,-1.0535 z"
       id="path4464" />
    <path
       style="fill:#3f4460"
       inkscape:connector-curvature="0"
       d="m 348.95271,520.28576 c 0,0 -30.12049,2.83226 -34.56704,5.8127 -3.87514,2.59487 -11.92577,27.45006 -13.79016,32.90504 l 68.03962,0 0,-37.66424 -19.68242,-1.0535 z"
       id="path4484" />
    <path
       id="path4488"
       d="m 368.62749,521.92745 -16.08216,-6.46748 -3.96168,4.02277 8.00226,17.74548 12.04158,-15.30077 z"
       inkscape:connector-curvature="0"
       style="fill:#ffffff" />
    <path
       id="path4492"
       d="m 368.62749,521.92745 16.08343,-6.46748 3.96169,4.02277 -8.00354,17.74548 -12.04158,-15.30077 z"
       inkscape:connector-curvature="0"
       style="fill:#ffffff" />
    <path
       id="path4496"
       d="m 409.19878,447.66978 c 0,0 13.01768,-59.34378 -40.84235,-59.34378 -54.14129,0 -40.55093,57.70846 -40.55093,57.70846 0,0 7.39777,-4.23657 7.39777,14.70391 l 1.35917,0 c 0,0 2.62288,-12.69953 3.41827,-24.08443 19.03974,0 35.88166,-2.43962 50.03834,-14.15668 8.04044,0 9.13363,10.01301 9.13363,17.67421 l -3.52008,1.36426 c 0,0 3.40936,6.67237 3.65243,19.20264 l 2.4409,0 c 0,0 -0.36016,-20.89396 7.47285,-13.06859"
       style="fill:#3e3e3f;fill-opacity:1"
       inkscape:connector-curvature="0" />
  </g>
  <style
     id="style4222"
     type="text/css">.st0{fill:#31AF91;}
	.st1{fill:#FFFFFF;}</style>
</svg>
