<?xml version="1.0" encoding="UTF-8" standalone="no"?>
<svg
   xmlns:dc="http://purl.org/dc/elements/1.1/"
   xmlns:cc="http://creativecommons.org/ns#"
   xmlns:rdf="http://www.w3.org/1999/02/22-rdf-syntax-ns#"
   xmlns:svg="http://www.w3.org/2000/svg"
   xmlns="http://www.w3.org/2000/svg"
   xmlns:sodipodi="http://sodipodi.sourceforge.net/DTD/sodipodi-0.dtd"
   xmlns:inkscape="http://www.inkscape.org/namespaces/inkscape"
   height="190.50002"
   version="1.0"
   viewBox="0 0 250 190.50002"
   width="250"
   xml:space="preserve"
   id="svg68"
   sodipodi:docname="speaker.svg"
   inkscape:version="0.91 r13725"><metadata
     id="metadata74"><rdf:RDF><cc:Work
         rdf:about=""><dc:format>image/svg+xml</dc:format><dc:type
           rdf:resource="http://purl.org/dc/dcmitype/StillImage" /><dc:title></dc:title></cc:Work></rdf:RDF></metadata><defs
     id="defs72" /><sodipodi:namedview
     pagecolor="#ffffff"
     bordercolor="#666666"
     borderopacity="1"
     objecttolerance="10"
     gridtolerance="10"
     guidetolerance="10"
     inkscape:pageopacity="0"
     inkscape:pageshadow="2"
     inkscape:window-width="1366"
     inkscape:window-height="715"
     id="namedview70"
     showgrid="false"
     fit-margin-top="0"
     fit-margin-left="0"
     fit-margin-right="0"
     fit-margin-bottom="0"
     inkscape:zoom="1.4142136"
     inkscape:cx="2.6327702"
     inkscape:cy="89.659075"
     inkscape:window-x="0"
     inkscape:window-y="25"
     inkscape:window-maximized="1"
     inkscape:current-layer="g4543" /><g
     id="Artboard"
     transform="translate(-5.1399889,100.893)" /><g
     id="Multicolor"
     transform="matrix(1.0149811,0,0,1.0149811,-5.1396294,99.244718)"><g
       id="g4543"
       transform="matrix(2.7214286,0,0,2.7214286,-8.7169155,-154.77082)"><rect
         style="fill:#f29871;fill-opacity:1;stroke-width:0.98524004"
         id="rect4623"
         width="90.507614"
         height="68.966805"
         x="5.0637689"
         y="20.941557" /><g
         id="g3392"
         transform="matrix(0.36203045,0,0,0.36203045,-92.424422,26.854779)"><g
           id="icon"
           transform="translate(232.78175,52.630807)"><g
             id="g4235"
             transform="translate(-186.59903,-40.045022)"><path
               id="path4226"
               d="m 373.34307,107.51327 c -3.76777,-0.56516 -6.4052,-3.57938 -6.4052,-7.34714 l 0,-10.926524 c 3.95615,-4.33293 6.59359,-9.984577 7.15875,-16.389786 l 0.37678,-6.028428 c 2.07227,-1.13033 4.14454,-3.767766 5.08648,-7.158757 1.31872,-4.709708 0.18839,-8.854252 -2.82583,-9.231029 -0.37676,0 -0.75354,0 -1.31871,0 l 0.75355,-11.114912 c 1.31872,-15.447844 -10.54974,-28.44664 -25.62081,-28.44664 l -4.70971,0 c -15.07107,0 -26.93954,12.998796 -25.9976,28.44664 l 0.75356,11.3033 c -0.37678,-0.188388 -0.75356,-0.188388 -1.13032,-0.188388 -3.01422,0.376777 -4.14455,4.521321 -2.82583,9.231029 0.94194,3.579379 3.20259,6.216815 5.27487,7.347145 l 0.37678,5.84004 c 0.37677,6.405209 3.01421,12.056856 6.97036,16.389786 l 0,10.926524 c 0,3.76776 -2.63743,6.78198 -6.4052,7.34714 -16.57817,2.82583 -44.45965,14.88268 -44.45965,27.69309 l 0,26.37437 139.40738,0 0,-26.37437 c 0,-12.81041 -27.88148,-24.86726 -44.45965,-27.69309 z"
               class="st1"
               inkscape:connector-curvature="0"
               style="fill:#ffffff" /></g></g></g></g></g><style
     id="style4222"
     type="text/css">
	.st0{fill:#31AF91;}
	.st1{fill:#FFFFFF;}
</style></svg>