<?xml version="1.0" encoding="UTF-8" standalone="no"?>
<svg
   xmlns:dc="http://purl.org/dc/elements/1.1/"
   xmlns:cc="http://creativecommons.org/ns#"
   xmlns:rdf="http://www.w3.org/1999/02/22-rdf-syntax-ns#"
   xmlns:svg="http://www.w3.org/2000/svg"
   xmlns="http://www.w3.org/2000/svg"
   xmlns:sodipodi="http://sodipodi.sourceforge.net/DTD/sodipodi-0.dtd"
   xmlns:inkscape="http://www.inkscape.org/namespaces/inkscape"
   height="100"
   version="1.1"
   viewBox="0 0 100 100"
   width="100"
   id="svg126"
   sodipodi:docname="instagram.svg"
   inkscape:export-filename="/home/joaquim/Downloads/phone.png"
   inkscape:export-xdpi="152.39999"
   inkscape:export-ydpi="152.39999"
   inkscape:version="0.92.2 5c3e80d, 2017-08-06">
  <metadata
     id="metadata130">
    <rdf:RDF>
      <cc:Work
         rdf:about="">
        <dc:format>image/svg+xml</dc:format>
        <dc:type
           rdf:resource="http://purl.org/dc/dcmitype/StillImage" />
        <dc:title></dc:title>
      </cc:Work>
    </rdf:RDF>
  </metadata>
  <sodipodi:namedview
     pagecolor="#ffffff"
     bordercolor="#666666"
     borderopacity="1"
     objecttolerance="10"
     gridtolerance="10"
     guidetolerance="10"
     inkscape:pageopacity="0"
     inkscape:pageshadow="2"
     inkscape:window-width="1366"
     inkscape:window-height="708"
     id="namedview128"
     showgrid="false"
     fit-margin-top="0"
     fit-margin-left="0"
     fit-margin-right="0"
     fit-margin-bottom="0"
     inkscape:zoom="3.9333333"
     inkscape:cx="60.237259"
     inkscape:cy="44.097284"
     inkscape:window-x="0"
     inkscape:window-y="0"
     inkscape:window-maximized="1"
     inkscape:current-layer="whatsapp" />
  <defs
     id="defs118" />
  <g
     id="black"
     style="fill:none;fill-rule:evenodd;stroke:none;stroke-width:1"
     transform="translate(176.94915,-46.440678)">
    <g
       id="whatsapp">
      <g
         id="g3669"
         transform="matrix(1.6666667,0,0,1.6666667,-176.94915,46.440678)">
        <path
           style="fill:#dd5d26;fill-opacity:1"
           id="path120"
           d="M 30,60 C 46.568543,60 60,46.568543 60,30 60,13.431457 46.568543,0 30,0 13.431457,0 0,13.431457 0,30 0,46.568543 13.431457,60 30,60 Z"
           inkscape:connector-curvature="0" />
      </g>
      <path
         inkscape:connector-curvature="0"
         d="m -108.63022,69.716103 h -36.63788 c -4.6384,0 -8.40164,3.76324 -8.40164,8.40961 V 114.7636 c 0,4.63841 3.76324,8.40165 8.40164,8.40165 h 36.63788 c 4.63842,0 8.40166,-3.76324 8.40166,-8.40165 V 78.125713 c 0,-4.64637 -3.76324,-8.40961 -8.40166,-8.40961 z m -5.68145,6.1819 6.71495,-0.0159 h 0.0159 c 0.64444,-0.008 1.16954,0.51715 1.16954,1.15364 v 6.73882 c 0,0.64444 -0.51714,1.16159 -1.16159,1.16159 l -6.707,0.0239 c -0.64444,0 -1.16159,-0.51715 -1.16159,-1.15363 l -0.0239,-6.73883 c -0.008,-0.64444 0.50919,-1.16159 1.15364,-1.16955 z m -20.8283,15.952 c 0.17503,-0.30233 0.35803,-0.60467 0.56488,-0.89109 1.71057,-2.37092 4.48725,-3.92236 7.62196,-3.92236 3.14266,0 5.91934,1.55144 7.6299,3.92236 0.20686,0.28642 0.38985,0.58876 0.56489,0.89904 0.76378,1.35254 1.21728,2.9199 1.21728,4.58272 0,5.187387 -4.22469,9.404117 -9.41207,9.404117 -5.18739,0 -9.40413,-4.21673 -9.40413,-9.404117 -7.9e-4,-1.66282 0.44555,-3.23018 1.21729,-4.59067 z m 29.70811,20.988217 c 0,2.82442 -2.29931,5.12374 -5.12373,5.12374 h -32.78712 c -2.82442,0 -5.12373,-2.29932 -5.12373,-5.12374 V 90.958913 h 7.97997 c -0.1989,0.48533 -0.37393,0.99452 -0.51714,1.50371 -0.36598,1.26502 -0.55693,2.60165 -0.55693,3.97805 0,8.059537 6.55583,14.615367 14.60741,14.615367 8.05953,0 14.61537,-6.55583 14.61537,-14.615367 0,-1.3764 -0.19889,-2.71303 -0.55692,-3.97805 -0.15117,-0.50919 -0.31825,-1.01838 -0.51715,-1.50371 h 7.97997 z"
         style="fill:#ffffff;stroke-width:0.7956109"
         id="path66" />
    </g>
  </g>
</svg>
