<?xml version="1.0" encoding="UTF-8" standalone="no"?>
<svg
   xmlns:dc="http://purl.org/dc/elements/1.1/"
   xmlns:cc="http://creativecommons.org/ns#"
   xmlns:rdf="http://www.w3.org/1999/02/22-rdf-syntax-ns#"
   xmlns:svg="http://www.w3.org/2000/svg"
   xmlns="http://www.w3.org/2000/svg"
   xmlns:sodipodi="http://sodipodi.sourceforge.net/DTD/sodipodi-0.dtd"
   xmlns:inkscape="http://www.inkscape.org/namespaces/inkscape"
   height="100"
   version="1.1"
   viewBox="0 0 100 100"
   width="100"
   id="svg126"
   sodipodi:docname="phone-2.svg"
   inkscape:export-filename="/home/joaquim/Downloads/phone.png"
   inkscape:export-xdpi="152.39999"
   inkscape:export-ydpi="152.39999"
   inkscape:version="0.92.2 5c3e80d, 2017-08-06">
  <metadata
     id="metadata130">
    <rdf:RDF>
      <cc:Work
         rdf:about="">
        <dc:format>image/svg+xml</dc:format>
        <dc:type
           rdf:resource="http://purl.org/dc/dcmitype/StillImage" />
        <dc:title></dc:title>
      </cc:Work>
    </rdf:RDF>
  </metadata>
  <sodipodi:namedview
     pagecolor="#ffffff"
     bordercolor="#666666"
     borderopacity="1"
     objecttolerance="10"
     gridtolerance="10"
     guidetolerance="10"
     inkscape:pageopacity="0"
     inkscape:pageshadow="2"
     inkscape:window-width="1366"
     inkscape:window-height="709"
     id="namedview128"
     showgrid="false"
     fit-margin-top="0"
     fit-margin-left="0"
     fit-margin-right="0"
     fit-margin-bottom="0"
     inkscape:zoom="3.9333333"
     inkscape:cx="18.415225"
     inkscape:cy="44.097284"
     inkscape:window-x="0"
     inkscape:window-y="0"
     inkscape:window-maximized="1"
     inkscape:current-layer="g3669" />
  <defs
     id="defs118" />
  <g
     id="black"
     style="fill:none;fill-rule:evenodd;stroke:none;stroke-width:1"
     transform="translate(176.94915,-46.440678)">
    <g
       id="whatsapp">
      <g
         id="g3669"
         transform="matrix(1.6666667,0,0,1.6666667,-176.94915,46.440678)">
        <path
           style="fill:#dd5d26;fill-opacity:1"
           id="path120"
           d="M 30,60 C 46.568543,60 60,46.568543 60,30 60,13.431457 46.568543,0 30,0 13.431457,0 0,13.431457 0,30 0,46.568543 13.431457,60 30,60 Z"
           inkscape:connector-curvature="0" />
        <path
           id="path122"
           d="m 47.962789,38.023019 c -0.223574,-0.367443 -0.817059,-0.589369 -1.705634,-1.03078 -0.891042,-0.441409 -5.268977,-2.579414 -6.083571,-2.872866 -0.817058,-0.29428 -1.411359,-0.443053 -2.004017,0.441411 -0.592658,0.884462 -2.299116,2.872866 -2.819435,3.462235 -0.5195,0.590189 -1.038176,0.66417 -1.928396,0.221921 -0.889397,-0.441411 -3.758147,-1.374374 -7.159555,-4.383686 -2.645996,-2.341037 -4.433009,-5.231165 -4.951686,-6.116451 -0.5195,-0.883641 -0.05509,-1.361217 0.390445,-1.800986 0.400311,-0.396198 0.890222,-1.031601 1.33574,-1.54699 0.445518,-0.516211 0.593481,-0.883642 0.889394,-1.473831 0.29755,-0.58937 0.148803,-1.10476 -0.07397,-1.547813 -0.222767,-0.44141 -2.004018,-4.788109 -2.745454,-6.557039 -0.741437,-1.767283 -1.482053,-1.473009 -2.002377,-1.473009 -0.5195,0 -1.112975,-0.07397 -1.706453,-0.07397 -0.593482,0 -1.5585,0.221113 -2.374741,1.104757 -0.815417,0.884467 -3.114528,3.021649 -3.114528,7.367525 0,4.346695 3.18851,8.546258 3.634853,9.134803 0.444695,0.588547 6.156722,9.798156 15.206041,13.335192 9.05261,3.536214 9.05261,2.356651 10.685086,2.209512 1.630011,-0.147131 5.264864,-2.136354 6.008765,-4.198736 0.740617,-2.064024 0.740617,-3.832952 0.5195,-4.201206 z"
           inkscape:connector-curvature="0"
           style="fill:#ffffff;stroke-width:2.22623062"
           sodipodi:nodetypes="cccccccccccccsscscccccc" />
      </g>
    </g>
  </g>
</svg>
