<?xml version="1.0" encoding="UTF-8" standalone="no"?>
<svg
   xmlns:dc="http://purl.org/dc/elements/1.1/"
   xmlns:cc="http://creativecommons.org/ns#"
   xmlns:rdf="http://www.w3.org/1999/02/22-rdf-syntax-ns#"
   xmlns:svg="http://www.w3.org/2000/svg"
   xmlns="http://www.w3.org/2000/svg"
   xmlns:sodipodi="http://sodipodi.sourceforge.net/DTD/sodipodi-0.dtd"
   xmlns:inkscape="http://www.inkscape.org/namespaces/inkscape"
   height="100"
   version="1.1"
   viewBox="0 0 100 100"
   width="100"
   id="svg126"
   sodipodi:docname="web.svg"
   inkscape:export-filename="/home/joaquim/Downloads/web.png"
   inkscape:export-xdpi="152.39999"
   inkscape:export-ydpi="152.39999"
   inkscape:version="0.92.2 5c3e80d, 2017-08-06">
  <metadata
     id="metadata130">
    <rdf:RDF>
      <cc:Work
         rdf:about="">
        <dc:format>image/svg+xml</dc:format>
        <dc:type
           rdf:resource="http://purl.org/dc/dcmitype/StillImage" />
        <dc:title></dc:title>
      </cc:Work>
    </rdf:RDF>
  </metadata>
  <sodipodi:namedview
     pagecolor="#ffffff"
     bordercolor="#666666"
     borderopacity="1"
     objecttolerance="10"
     gridtolerance="10"
     guidetolerance="10"
     inkscape:pageopacity="0"
     inkscape:pageshadow="2"
     inkscape:window-width="1366"
     inkscape:window-height="708"
     id="namedview128"
     showgrid="false"
     fit-margin-top="0"
     fit-margin-left="0"
     fit-margin-right="0"
     fit-margin-bottom="0"
     inkscape:zoom="3.9333333"
     inkscape:cx="60.237259"
     inkscape:cy="44.097284"
     inkscape:window-x="0"
     inkscape:window-y="0"
     inkscape:window-maximized="1"
     inkscape:current-layer="whatsapp" />
  <defs
     id="defs118" />
  <g
     id="black"
     style="fill:none;fill-rule:evenodd;stroke:none;stroke-width:1"
     transform="translate(176.94915,-46.440678)">
    <g
       id="whatsapp">
      <g
         id="g3669"
         transform="matrix(1.6666667,0,0,1.6666667,-176.94915,46.440678)">
        <path
           style="fill:#dd5d26;fill-opacity:1"
           id="path120"
           d="M 30,60 C 46.568543,60 60,46.568543 60,30 60,13.431457 46.568543,0 30,0 13.431457,0 0,13.431457 0,30 0,46.568543 13.431457,60 30,60 Z"
           inkscape:connector-curvature="0" />
      </g>
      <path
         style="opacity:1;fill:#ffffff;fill-opacity:1;stroke:none;stroke-width:15.90830517;stroke-linecap:round;stroke-linejoin:round;stroke-miterlimit:4;stroke-dasharray:none;stroke-dashoffset:0;stroke-opacity:1;paint-order:normal"
         d="m -114.73795,64.367052 c 6.51038,4.28694 8.9347,7.931029 10.45691,11.176223 -1.74255,-1.782963 -4.70957,-3.625315 -6.73287,-3.785681 2.97161,2.219023 7.93972,8.750914 7.52618,18.640761 -1.34228,-3.363681 -3.15681,-4.755768 -3.15681,-4.755768 0.002,0.0282 0.006,0.05409 0.008,0.08228 -0.0147,-0.01473 -0.0336,-0.03199 -0.0493,-0.04524 0.42175,3.857404 0.53775,6.535278 0.48093,8.520909 -0.0147,0.445111 -0.0406,0.893201 -0.0741,1.340001 -0.1629,2.06729 -0.53352,3.26422 -0.85909,4.513263 -0.36661,-1.563883 -0.85084,-2.433373 -0.85084,-2.433373 0,0 -8.7e-4,0.0391 -0.008,0.10691 -0.0105,-0.0211 -0.024,-0.0457 -0.0328,-0.0658 0,0 -0.11785,3.082073 -2.12099,7.489183 -1.2402,2.7258 -2.50696,3.90903 -3.313,4.18851 -0.29379,0.0849 -0.53843,0.0467 -0.71522,-0.0823 -0.004,0.0189 -0.008,0.0387 -0.0126,0.0575 -0.0147,-0.008 -0.0246,-0.0169 -0.0246,-0.0169 0.0402,-0.44026 0.0996,-0.87935 -0.0211,-1.17968 0,0 -0.6437,0.2209 -1.06461,0.80154 -0.16037,0.24055 -0.37692,0.45786 -0.65766,0.6782 -0.04,0.04 0.45925,-0.64044 0.41926,-0.62066 -0.24034,0.20035 -0.52064,0.44269 -0.78097,0.72343 -0.98135,1.02134 -1.88226,2.16199 -2.34294,1.84147 0.42091,-0.14016 0.77889,-0.67951 0.85907,-1.2208 -0.38049,0.28053 -1.36028,0.99907 -3.56374,1.34001 -0.90137,0.14015 -4.72811,0.84211 -9.83624,-1.72227 0.74121,-0.0795 1.86327,-0.34037 2.70466,0.16036 -0.84139,-0.92116 -2.90303,-0.73934 -4.36526,-1.20024 -1.28209,-0.40071 -2.94766,-2.2063 -3.90901,-3.10747 3.44618,0.84412 7.07818,0.40821 9.54028,-0.8221 0.35861,-0.17594 0.69347,-0.36995 0.99883,-0.57957 1.48012,-1.02322 3.55484,-2.49194 4.71465,-2.606 0.13932,-8.4e-4 0.27637,0.008 0.41105,0.041 1.28188,0.2799 2.14426,-1.00039 1.1427,-2.162103 -1.00154,-1.16191 -3.44394,-2.70355 -6.74932,-1.88256 -2.54376,0.64124 -4.68801,2.664143 -8.25373,1.26189 -0.22054,-0.0802 -0.44121,-0.17993 -0.66176,-0.30006 -0.22035,-0.12017 0.7418,0.13995 0.50147,0 -0.68104,-0.26054 -1.92378,-0.82369 -2.2443,-1.04405 -0.0604,-0.0396 0.52056,0.10121 0.46037,0.0617 -0.69513,-0.41165 -1.23634,-0.80405 -1.66061,-1.1797 -0.008,-0.006 -0.0127,-0.0147 -0.0211,-0.0211 -1.92271,-1.70278 -1.48149,-3.34735 -1.24137,-4.188532 0.18709,-0.66335 0.68751,-1.251211 1.0194,-1.487971 0.0392,-0.02484 0.0785,-0.05156 0.11911,-0.07407 0.48068,0.180359 0.78098,0.341166 0.78098,0.341166 0,0 -0.21766,-0.341671 -0.35761,-0.52203 0.0398,-0.02104 0.0587,-0.02104 0.0987,-0.04104 0.4007,0.140372 1.30214,0.462346 1.74283,0.702894 0.62104,0.300317 0.82207,0.62067 0.82207,0.62067 0,0 0.14038,-0.09807 0,-0.398705 -0.06,-0.139951 -0.28268,-0.523019 -0.88373,-0.883736 h 0.0211 c 0.32052,0.120168 0.66299,0.281123 1.0235,0.501468 0.12038,-0.541076 0.34157,-1.10244 0.2014,-2.083995 -0.12016,-0.701232 -0.10265,-0.861598 -0.26307,-1.122139 -0.14016,-0.220345 0.0427,-0.299561 0.26307,-0.119117 -0.06,-0.180359 -0.14184,-0.341671 -0.22196,-0.52203 8.4e-4,-0.0042 0.004,-0.0042 0.004,-0.0084 0.025,0.04987 0.044,0.07407 0.0658,0.06987 0.0147,0.02104 0.0244,0.01893 0.0288,-0.02104 1.06342,-1.282293 5.24892,-3.22438 6.19028,-4.225509 0.12059,-0.130901 0.2219,-0.243726 0.30418,-0.341166 -0.006,0.02104 -0.0147,0.04462 -0.0211,0.06166 0.54066,-0.420908 0.77883,-0.824916 1.01938,-1.405768 0.24034,-0.600845 0.52169,-2.001309 -0.27951,-2.301836 -0.63304,-0.153632 -1.19457,-0.270854 -2.19086,-0.263068 -0.83781,-0.06124 -1.9686,-0.08944 -3.49797,-0.07808 -2.22344,0.02104 -3.26487,-1.924366 -3.62538,-2.745767 -0.006,0.0242 -0.0147,0.04987 -0.0211,0.07409 -0.006,-0.01684 -0.0147,-0.03704 -0.0211,-0.05345 0.64083,-2.343402 1.94324,-4.383833 3.96655,-6.046417 0.12037,-0.100179 -0.48188,0.05914 -0.36172,-0.04104 0.14038,-0.120169 1.00288,-0.540487 1.16325,-0.62067 0.20035,-0.120169 -0.94179,-0.422317 -1.90311,-0.221966 -0.92139,0.187936 -1.13701,0.305159 -1.59074,0.534342 -0.0221,0.0084 -0.0485,0.02104 -0.0781,0.03283 0.21572,-0.219714 0.84322,-0.525356 0.68643,-0.505573 -1.06152,0.240128 -2.32547,0.939949 -3.38699,1.681167 0,-0.100179 5.7e-4,-0.180148 0.0211,-0.320626 -0.50088,0.260331 -1.72178,1.20211 -2.02232,1.903131 0,-0.159944 -3.5e-4,-0.238337 -0.0211,-0.398703 -0.3403,0.3201 -0.68186,0.700873 -0.98239,1.101577 0,0 -0.002,0.0063 -0.008,0.01263 -1.18653,-0.295897 -2.27685,-0.437133 -3.25546,-0.480908 -1.78402,-0.08944 -3.38422,0.141635 -4.81741,0.591901 -0.75742,-0.615997 -1.87583,-1.6895 -2.73343,-3.070496 -0.0147,-0.02209 -0.0267,-0.0242 -0.037,-0.01684 -0.0147,-0.01052 -0.0303,0.0011 -0.041,0.02462 -0.002,-0.0021 -0.002,-0.0063 -0.004,-0.0084 -0.0501,-0.07513 -0.068,0.05387 -0.0945,0.131533 -0.53371,-0.965351 -0.96805,-2.586033 -1.0276,-3.736373 0,0 -0.004,0.0042 -0.0169,0.01263 -2.2e-4,-0.0042 2.1e-4,-0.0084 0,-0.01263 0,0 -0.0219,0.01263 -0.0575,0.03704 -8.5e-4,-0.01263 -0.004,-0.02462 -0.004,-0.03704 0,0 -0.88168,0.498881 -1.44274,2.301837 -0.0571,0.182674 -0.10818,0.322183 -0.15216,0.439827 0.0105,-0.150475 0.0227,-0.31023 0.0127,-0.279503 -0.004,0.01052 -0.0105,0.02273 -0.0169,0.03283 8.4e-4,-0.02863 -3.4e-4,-0.04378 -0.004,-0.03283 -0.0147,0.03346 -0.0378,0.07155 -0.0617,0.110909 0.004,-0.07765 0.006,-0.129851 0,-0.110909 -0.10018,0.220555 -0.41775,0.581672 -0.51792,0.982376 -0.063,0.235287 -0.15131,0.398999 -0.20562,0.641231 -0.004,-0.08439 -0.008,-0.13427 -0.0169,-0.110908 -0.002,-0.01684 -0.0105,-0.02883 -0.0211,-0.02883 h -0.0211 c -0.006,0.01684 -0.0147,0.03599 -0.0211,0.05345 -0.006,-0.04672 -0.0105,-0.07366 -0.0169,-0.05345 -0.26054,0.661034 -0.48198,1.424013 -0.68233,2.2854 -0.1972,0.957354 -0.39456,2.160706 -0.4316,3.613046 -0.0766,1.339537 -0.025,2.342728 0.0493,2.536135 0.006,-0.0063 0.0105,-0.01052 0.0169,-0.01684 -0.85907,1.179803 -1.39524,2.179751 -1.61538,2.68 -1.04174,2.02309 -2.10655,5.148748 -2.96773,9.996547 0,0 0.0189,-0.0583 0.0535,-0.156156 -0.0105,0.0585 -0.0225,0.117643 -0.0328,0.176781 0,0 0.002,-0.01052 0.008,-0.02883 -0.002,0.01684 -0.006,0.03367 -0.008,0.04925 0,0 0.0223,-0.08165 0.0823,-0.221965 -0.0211,0.05998 -0.0211,0.141214 -0.041,0.201404 0,0 0.0774,-0.220176 0.21786,-0.620669 0.0127,-0.07534 0.0316,-0.147529 0.0453,-0.221966 0.27043,-0.703126 0.72003,-1.772609 1.35643,-2.930735 -0.82182,2.608362 -1.47502,6.61744 -1.08105,12.586143 0.002,-0.0189 0.008,-0.0525 0.0126,-0.0945 0.002,0.0519 0.004,0.10376 0.008,0.15617 0,-0.0356 0.0169,-0.10545 0.0211,-0.20562 4.3e-4,0.0627 0.004,0.11764 0.0211,0.18498 0,-0.0799 0.0387,-0.42063 0.11911,-0.941293 -0.004,-0.0728 -0.004,-0.14164 -0.008,-0.21374 0.10017,-0.65388 0.25437,-1.54496 0.47682,-2.56903 0.23298,4.023463 1.20702,8.925563 4.32005,14.259073 2.4038,4.10638 8.71449,13.64094 24.55977,17.20623 -0.0598,-0.0169 -0.11871,-0.0352 -0.17679,-0.0535 0.0785,0.0189 0.15931,0.0358 0.23841,0.0535 -0.72123,-0.20035 -1.34379,-0.50045 -1.80448,-0.78099 -0.0408,-0.0105 -0.0825,-0.0215 -0.12332,-0.0328 -0.61453,-0.36829 -0.95774,-0.68644 -0.95774,-0.68644 0,0 0.36789,0.12018 0.99063,0.29596 0.002,0.002 0.004,0.002 0.008,0.004 1.84294,0.52066 6.03335,1.58327 9.31832,1.4633 -0.0312,-0.006 -0.0604,-0.0147 -0.0905,-0.0211 -0.0343,-0.006 -0.065,-0.0147 -0.0987,-0.0211 -0.31232,-0.0724 -0.56827,-0.15846 -0.7522,-0.25896 -0.0189,-4.2e-4 -0.0419,-0.004 -0.0617,-0.004 -0.56739,-0.27379 -0.70288,-0.596 -0.70288,-0.596 0,0 0.17341,0.008 0.48091,0.0169 0.008,0.006 0.0127,0.0127 0.0211,0.0211 2.18345,0.0602 12.5822,0.14206 18.29138,-4.36526 1.42225,-1.06175 2.34248,-2.30597 2.64301,-3.42811 0,0 -0.0105,0.008 -0.0328,0.0211 0.002,-0.008 0.006,-0.0127 0.008,-0.0211 l 0.004,-0.004 v 0.008 c 0.66104,-0.34031 1.32075,-0.74366 2.00177,-1.20435 1.538,-1.04363 3.376286,-2.46064 4.920174,-4.2255 0.05872,-0.067 0.114696,-0.13343 0.172572,-0.20141 0.08544,-0.10059 0.175939,-0.1974 0.258942,-0.30006 0.650933,-0.78878 1.142468,-1.557 1.520863,-2.26896 0.0016,-0.004 0.0063,-0.008 0.0084,-0.0126 0.0021,-0.004 0.0017,-0.008 0.0042,-0.0127 0.762053,-1.41425 1.275328,-2.9936 1.36877,-4.73931 -0.02757,0.40386 -0.121642,0.80164 -0.271275,1.19203 0.0084,-0.0465 0.01684,-0.0895 0.02462,-0.13553 0.377765,-1.30355 0.340283,-2.46681 -0.139741,-3.2678 2.169566,-4.10216 4.683772,-12.00651 2.589548,-18.944955 -0.02652,-0.08839 -0.0583,-0.174677 -0.08628,-0.263068 -0.07976,-0.265171 -0.131532,-0.415141 -0.131532,-0.415141 h -0.0042 c 6.95e-4,0.0021 -6.95e-4,0.0063 0,0.0084 -0.03662,0.110488 -0.61101,1.84248 -1.364644,4.385811 0.40849,-3.794478 0.124377,-7.747154 -1.196135,-11.402313 -0.626309,-1.744451 -1.406251,-3.196286 -2.166198,-4.352939 -0.983303,-1.603951 -2.066086,-2.825971 -2.918404,-3.415746 0.019,0.02104 0.0343,0.04062 0.0534,0.06166 -0.0627,-0.05661 -0.0987,-0.08628 -0.0987,-0.08628 0,0 0.0758,0.405438 0.20562,1.118034 -1.76824,-2.812501 -4.42077,-4.235315 -4.78864,-4.422829 -0.0415,-0.02778 -0.0659,-0.04104 -0.0659,-0.04104 0,0 0.14732,0.819844 0.36584,2.573133 -2.77547,-2.212079 -6.11774,-4.022064 -10.09932,-5.117475 z"
         id="rect3773"
         inkscape:connector-curvature="0"
         sodipodi:nodetypes="cccccccccccccccccccccccccccccccccccccccccccccccccccccccccccccccccccccccccccccccccccccccccccccccccccccccccccsccccccccccccccccccccccccccccccccccccccccccccccccccccccccccccccccccccccccccccc" />
    </g>
  </g>
</svg>
